<?xml version="1.0" encoding="utf-8"?>
<svg xmlns="http://www.w3.org/2000/svg"
     width="100" height="100" viewBox="0 0 100 100">
  <!-- Fondo blanco del icono -->
  <rect width="100" height="100" fill="white" />

  <!-- Logotipo rojo centrado y escalado -->
  <g transform="translate(16.425 32.15) scale(0.85)">
    <path d="M78.6286 17.3871C77.0608 7.90324 68.4487 0.204312 58.8916 0.0322686C53.501 -0.0537529 48.1318 0.0322686 42.7412 -0.0107422C42.3117 -0.0107422 42.054 0.161301 41.7748 0.462376C36.3412 6.76345 30.8861 13.0645 25.4525 19.3656C25.3451 19.086 25.2807 18.8495 25.1948 18.6344C24.4431 16.7419 22.725 15.6452 20.5988 15.7312C18.7948 15.8172 17.1626 17.129 16.6256 18.9785C15.7451 21.9032 17.9357 24.7635 21.1143 24.785C26.6337 24.785 32.1318 24.785 37.6512 24.785C38.36 24.785 38.5318 24.9785 38.4244 25.6667C37.9519 28.6129 37.5009 31.5592 37.0929 34.5269C37.0069 35.1075 36.8781 35.3011 36.2767 35.3011C31.0579 35.2796 25.8391 35.3226 20.5988 35.2796C12.3303 35.1936 5.99471 28.1183 6.72492 19.8817C7.36921 12.7204 13.3182 7.15055 20.47 7.06453C22.768 7.02152 25.0445 7.06453 27.3425 7.06453C27.6431 7.06453 27.9653 7.15055 28.223 6.82797C30.027 4.72044 31.8526 2.63442 33.7425 0.462376C33.5063 0.440871 33.3989 0.419365 33.2915 0.419365C29.0606 0.419365 24.8082 0.419365 20.5773 0.419365C19.1169 0.419365 17.678 0.591408 16.2605 0.892484C5.69404 3.17205 -1.54358 13.5376 0.28193 24.6774C1.82825 34.0753 10.3545 41.7312 19.8471 41.8817C25.1948 41.9678 30.521 41.8817 35.8687 41.9247C36.1049 41.9247 36.2767 41.8817 36.4271 41.7957C36.4271 41.8602 36.4271 41.9463 36.4056 42.0108C42.0969 35.4731 47.6379 29.1075 53.2218 22.6774C53.3292 23 53.4151 23.2581 53.501 23.4946C54.2527 25.4086 55.9923 26.5054 58.1399 26.4194C59.9655 26.3333 61.5977 25 62.1561 23.129C63.0366 20.1828 60.8245 17.3011 57.646 17.2796C52.0835 17.2796 46.5211 17.2796 40.9586 17.2796C40.2499 17.2796 40.0566 17.086 40.1855 16.3979C40.658 13.4301 41.109 10.4409 41.517 7.47313C41.6029 6.89248 41.7318 6.69894 42.3546 6.69894C47.6164 6.72044 52.8996 6.67743 58.1614 6.72044C66.4943 6.80646 72.8944 13.9462 72.1427 22.2473C71.4984 29.4731 65.5064 35.0645 58.2688 35.1721C55.9493 35.2151 53.6513 35.1721 51.3319 35.1721C51.0312 35.1721 50.709 35.086 50.4513 35.4086C48.6258 37.5376 46.8003 39.6452 44.8889 41.8387C45.1466 41.8602 45.254 41.8817 45.3614 41.8817C49.6352 41.8817 53.909 41.8817 58.1829 41.8817C59.6433 41.8817 61.1037 41.7097 62.5212 41.4086C73.1951 39.0645 80.4971 28.6129 78.6501 17.3871H78.6286Z"
          fill="#FF0012"/>
  </g>
</svg>