<svg width="176" height="175" viewBox="0 0 176 175" fill="none" xmlns="http://www.w3.org/2000/svg">
<g clip-path="url(#clip0_5696_90585)">
<rect x="0.5" width="175" height="175" rx="40" fill="white"/>
<g opacity="0.5" clip-path="url(#clip1_5696_90585)">
<rect width="175" height="175" transform="translate(0.5)" fill="white"/>
</g>
<g clip-path="url(#clip2_5696_90585)">
<path d="M42.1361 68.2875H19.5341C20.4881 68.2875 21.2848 68.6086 21.9242 69.2507C22.5586 69.8554 22.8783 70.551 22.8783 71.3483V78.2566H41.3445V84.5975H19.5341C20.0314 84.5975 20.4729 84.6939 20.8586 84.8812C21.2848 85.031 21.635 85.2612 21.9192 85.5608C22.2389 85.8604 22.4673 86.2029 22.6093 86.5828C22.7869 86.9199 22.8732 87.2838 22.8732 87.6584V96.3218H42.131V102.609H15.9261V65.0608C15.9261 64.5685 15.7841 64.0976 15.4999 63.6428C15.2157 63.1505 14.8097 62.7545 14.282 62.4548C13.7847 62.1498 13.2163 62 12.582 62H42.1361V68.2875Z" fill="#092F38"/>
<path d="M69.6656 94.6795C69.6656 98.0774 69.696 100.641 69.762 102.374H63.3529V99.0994C61.9726 101.7 59.3948 103 55.6142 103C52.2956 103 49.6517 101.7 47.6777 99.0994C45.7037 96.4988 44.7192 93.0528 44.7192 88.7558C44.7192 84.4589 45.7849 80.8897 47.9213 78.15C50.0576 75.3782 52.9501 73.9923 56.5987 73.9923C58.4408 73.9923 59.9174 74.2865 61.0338 74.8751C62.1858 75.4638 62.9571 76.1594 63.3529 76.9567V67.6512C63.3529 67.1642 63.155 66.7308 62.7592 66.3509C62.3634 65.971 61.8712 65.7783 61.2825 65.7783H69.6605V94.6795H69.6656ZM57.3447 97.5369C58.3951 97.5369 59.2983 97.3657 60.0544 97.0179C60.841 96.67 61.4499 96.2206 61.8762 95.6641C62.3025 95.1075 62.6476 94.4173 62.9114 93.5825C63.1753 92.7531 63.3529 91.9343 63.4544 91.137C63.5508 90.3076 63.6016 89.3712 63.6016 88.3277C63.6016 86.9043 63.5204 85.711 63.3529 84.7426C63.221 83.7365 62.9419 82.8215 62.5156 81.9867C62.1198 81.1198 61.5108 80.4777 60.6938 80.0656C59.8718 79.6483 58.8365 79.4396 57.5882 79.4396C56.2384 79.4396 55.0915 79.8035 54.1376 80.5312C53.1836 81.2589 52.4629 82.2971 51.9708 83.6509C51.509 85.0048 51.2806 86.6315 51.2806 88.5364C51.2806 91.4474 51.8084 93.6842 52.8588 95.2413C53.9447 96.7664 55.4366 97.5263 57.3447 97.5263V97.5369Z" fill="#092F38"/>
<path d="M97.7225 87.5571C97.7225 88.5952 97.687 89.3765 97.621 89.8956H79.8754C79.8754 92.1109 80.3828 93.9677 81.4028 95.4553C82.4532 96.9429 83.9147 97.692 85.7872 97.692C87.3299 97.692 88.4665 97.3977 89.1872 96.8092C89.9077 96.2205 90.5014 95.3697 90.9632 94.262H97.3216C97.0577 95.2681 96.6619 96.2205 96.1393 97.1195C95.647 98.0185 94.9568 98.9549 94.0688 99.9288C93.2163 100.865 92.0492 101.609 90.5674 102.166C89.1212 102.722 87.4618 102.995 85.5893 102.995C83.5544 102.995 81.7276 102.615 80.1189 101.85C78.5408 101.053 77.2773 99.977 76.3233 98.6285C75.3692 97.2747 74.6486 95.7871 74.1564 94.1604C73.6947 92.4962 73.4663 90.7303 73.4663 88.8574C73.4663 84.4214 74.537 80.8362 76.6682 78.0965C78.8047 75.3567 81.8748 73.9922 85.8836 73.9922C87.9895 73.9922 89.8266 74.3881 91.4047 75.1855C93.0133 75.9453 94.2464 77.0048 95.1041 78.3587C95.9921 79.675 96.6467 81.1145 97.0781 82.6716C97.5043 84.1967 97.7175 85.8234 97.7175 87.5571H97.7225ZM80.0277 85.6361H91.3134C91.2778 83.6241 90.8211 82.0134 89.9331 80.804C89.0451 79.5573 87.68 78.9312 85.843 78.9312C82.3619 78.9312 80.4234 81.168 80.0277 85.6361Z" fill="#092F38"/>
<path d="M115.95 73.9922C118.61 73.9922 120.73 74.9125 122.309 76.748C123.887 78.5834 124.674 81.2161 124.674 84.6515V102.374H118.315V85.4274C118.315 81.4783 116.753 79.5038 113.632 79.5038C109.953 79.5038 108.11 82.0669 108.11 87.1986V102.374H101.752V81.6335C101.752 79.279 101.737 77.5453 101.701 76.4376C101.666 75.9506 101.453 75.5387 101.062 75.1909C100.702 74.843 100.24 74.6717 99.6816 74.6717H108.059C108.059 76.6837 108.075 77.9626 108.11 78.5192C109.556 75.5066 112.17 73.9976 115.95 73.9976V73.9922Z" fill="#092F38"/>
<path d="M144.128 67.8936C144.224 67.8936 144.309 67.9692 144.331 68.0671L144.336 68.1109C144.582 75.818 150.47 82.0221 157.784 82.28H157.785C157.9 82.28 157.989 82.3771 157.989 82.5002C157.989 82.6214 157.895 82.7156 157.783 82.7204C150.469 82.9785 144.581 89.1833 144.336 96.8904C144.336 97.0065 144.244 97.1068 144.128 97.1068C144.027 97.1068 143.946 97.0314 143.924 96.9334L143.919 96.8894C143.673 89.1824 137.785 82.9782 130.471 82.7204C130.361 82.7204 130.267 82.6227 130.267 82.5002C130.267 82.379 130.359 82.2841 130.471 82.279C137.786 82.0212 143.674 75.8173 143.919 68.11C143.919 67.9939 144.011 67.8936 144.128 67.8936Z" fill="#0D6459" stroke="white" stroke-width="0.075"/>
</g>
</g>
<defs>
<clipPath id="clip0_5696_90585">
<rect x="0.5" width="175" height="175" rx="40" fill="white"/>
</clipPath>
<clipPath id="clip1_5696_90585">
<rect width="175" height="175" fill="white" transform="translate(0.5)"/>
</clipPath>
<clipPath id="clip2_5696_90585">
<rect width="151" height="41" fill="white" transform="translate(12.582 62)"/>
</clipPath>
</defs>
</svg>
