<svg width="176" height="175" viewBox="0 0 176 175" fill="none" xmlns="http://www.w3.org/2000/svg">
<g clip-path="url(#clip0_5696_90646)">
<rect x="0.835938" width="175" height="175" rx="40" fill="white"/>
<g opacity="0.5" clip-path="url(#clip1_5696_90646)">
<rect width="175" height="175" transform="translate(0.835938)" fill="white"/>
</g>
<path d="M87.9882 29C88.3926 29 88.7458 29.3009 88.8409 29.6898L88.8638 29.8641C89.8899 60.5044 114.558 85.1698 145.198 86.1947C145.679 86.1947 146.059 86.5809 146.059 87.0703C146.059 87.5523 145.666 87.9268 145.194 87.9458C114.554 88.9719 89.8887 113.64 88.8638 144.28C88.8638 144.742 88.4753 145.141 87.9882 145.141C87.5664 145.141 87.2268 144.841 87.1356 144.451L87.1127 144.276C86.0866 113.636 61.4188 88.9708 30.7783 87.9458C30.3169 87.9458 29.918 87.5573 29.918 87.0703C29.918 86.5886 30.308 86.211 30.7783 86.1908C61.4196 85.1659 86.0877 60.5016 87.1127 29.8603C87.1127 29.399 87.5012 29 87.9882 29Z" fill="#0D6459" stroke="white" stroke-width="0.075"/>
</g>
<defs>
<clipPath id="clip0_5696_90646">
<rect x="0.835938" width="175" height="175" rx="40" fill="white"/>
</clipPath>
<clipPath id="clip1_5696_90646">
<rect width="175" height="175" fill="white" transform="translate(0.835938)"/>
</clipPath>
</defs>
</svg>
