<svg width="164" height="164" viewBox="0 0 164 164" fill="none" xmlns="http://www.w3.org/2000/svg">
<mask id="mask0_5693_90537" style="mask-type:luminance" maskUnits="userSpaceOnUse" x="0" y="0" width="164" height="164">
<circle cx="81.5534" cy="81.5534" r="81.5534" fill="white"/>
</mask>
<g mask="url(#mask0_5693_90537)">
<rect width="163.107" height="163.107" fill="#FFEECE"/>
<rect width="163.107" height="163.107" stroke="black" stroke-width="0.117174" stroke-linejoin="bevel"/>
<rect width="163.107" height="163.107" stroke="black" stroke-width="0.117174" stroke-linejoin="bevel"/>
<rect width="163.107" height="163.107" fill="white"/>
</g>
<path d="M81.5532 23.4834C81.9576 23.4834 82.3107 23.7843 82.4058 24.1732L82.4287 24.3475C83.4548 54.9878 108.123 79.6532 138.763 80.6781C139.244 80.6781 139.623 81.0643 139.623 81.5537C139.623 82.0357 139.231 82.4102 138.759 82.4292C108.119 83.4553 83.4537 108.123 82.4287 138.764C82.4287 139.225 82.0402 139.624 81.5532 139.624C81.1313 139.624 80.7917 139.324 80.7005 138.934L80.6776 138.76C79.6515 108.12 54.9838 83.4542 24.3432 82.4292C23.8818 82.4292 23.4829 82.0407 23.4829 81.5537C23.4829 81.072 23.8729 80.6944 24.3432 80.6742C54.9846 79.6493 79.6527 54.985 80.6776 24.3437C80.6776 23.8824 81.0661 23.4834 81.5532 23.4834Z" fill="#0D6459" stroke="white" stroke-width="0.075"/>
</svg>
