<svg width="164" height="164" viewBox="0 0 164 164" fill="none" xmlns="http://www.w3.org/2000/svg">
<mask id="mask0_5693_90536" style="mask-type:luminance" maskUnits="userSpaceOnUse" x="0" y="0" width="164" height="164">
<circle cx="81.5534" cy="81.5534" r="81.5534" fill="white"/>
</mask>
<g mask="url(#mask0_5693_90536)">
<rect width="163.107" height="163.107" fill="#FFEECE"/>
<rect width="163.107" height="163.107" stroke="black" stroke-width="0.117174" stroke-linejoin="bevel"/>
<rect width="163.107" height="163.107" stroke="black" stroke-width="0.117174" stroke-linejoin="bevel"/>
<rect width="163.107" height="163.107" fill="white"/>
</g>
<g clip-path="url(#clip0_5693_90536)">
<path d="M42.8567 70.0607H23.8471C24.6495 70.0607 25.3196 70.3191 25.8573 70.8359C26.3909 71.3226 26.6598 71.8825 26.6598 72.5243V78.0846H42.1909V83.1883H23.8471C24.2654 83.1883 24.6367 83.2658 24.9611 83.4166C25.3196 83.5371 25.6141 83.7224 25.8531 83.9635C26.122 84.2047 26.3141 84.4804 26.4335 84.7862C26.5829 85.0575 26.6555 85.3504 26.6555 85.6519V92.6249H42.8524V97.6856H20.8126V67.4636C20.8126 67.0673 20.6931 66.6883 20.4541 66.3222C20.2151 65.926 19.8736 65.6073 19.4298 65.3661C19.0115 65.1206 18.5335 65 18 65H42.8567V70.0607Z" fill="#092F38"/>
<path d="M66.0107 91.3029C66.0107 94.0378 66.0363 96.1008 66.0917 97.4963H60.7013V94.8604C59.5404 96.9536 57.3723 98.0002 54.1926 98.0002C51.4014 98.0002 49.1778 96.9536 47.5176 94.8604C45.8573 92.7673 45.0293 89.9936 45.0293 86.5351C45.0293 83.0766 45.9255 80.2039 47.7224 77.9987C49.5192 75.7677 51.952 74.6522 55.0206 74.6522C56.5699 74.6522 57.8119 74.889 58.7508 75.3628C59.7197 75.8366 60.3684 76.3965 60.7013 77.0382V69.5484C60.7013 69.1565 60.5348 68.8077 60.202 68.5019C59.8691 68.1961 59.4551 68.041 58.96 68.041H66.0064V91.3029H66.0107ZM55.6481 93.6028C56.5315 93.6028 57.2912 93.465 57.9271 93.185C58.5887 92.9051 59.1008 92.5433 59.4593 92.0954C59.8179 91.6475 60.1081 91.0919 60.33 90.42C60.552 89.7524 60.7013 89.0934 60.7866 88.4517C60.8678 87.7841 60.9105 87.0304 60.9105 86.1905C60.9105 85.0449 60.8422 84.0844 60.7013 83.3049C60.5904 82.4952 60.3556 81.7587 59.9971 81.0868C59.6642 80.389 59.152 79.8722 58.4649 79.5406C57.7735 79.2047 56.9028 79.0367 55.8529 79.0367C54.7176 79.0367 53.753 79.3296 52.9507 79.9153C52.1483 80.501 51.5422 81.3366 51.1283 82.4262C50.7399 83.516 50.5478 84.8253 50.5478 86.3585C50.5478 88.7015 50.9917 90.5018 51.8751 91.7551C52.7885 92.9826 54.0433 93.5942 55.6481 93.5942V93.6028Z" fill="#092F38"/>
<path d="M89.6079 85.5705C89.6079 86.406 89.5781 87.0348 89.5226 87.4527H74.5974C74.5974 89.2357 75.0243 90.7302 75.8821 91.9275C76.7656 93.1249 77.9947 93.7278 79.5696 93.7278C80.8671 93.7278 81.8231 93.4909 82.4292 93.0172C83.0352 92.5435 83.5346 91.8586 83.923 90.9671H89.2708C89.0488 91.7768 88.7159 92.5435 88.2764 93.267C87.8623 93.9906 87.2819 94.7443 86.535 95.5281C85.8179 96.2819 84.8364 96.8805 83.5901 97.3285C82.3737 97.7764 80.9781 97.9961 79.4032 97.9961C77.6917 97.9961 76.1553 97.6903 74.8023 97.0744C73.475 96.4327 72.4123 95.567 71.6099 94.4816C70.8075 93.3919 70.2014 92.1946 69.7874 90.8853C69.3991 89.5458 69.207 88.1245 69.207 86.617C69.207 83.0466 70.1076 80.1609 71.9001 77.9558C73.6969 75.7506 76.2791 74.6523 79.6507 74.6523C81.4219 74.6523 82.967 74.971 84.2943 75.6128C85.6472 76.2244 86.6843 77.0771 87.4057 78.1668C88.1525 79.2263 88.7031 80.3849 89.0659 81.6382C89.4244 82.8657 89.6037 84.175 89.6037 85.5705H89.6079ZM74.7255 84.0243H84.2175C84.1876 82.4048 83.8035 81.1085 83.0566 80.1351C82.3097 79.1315 81.1616 78.6277 79.6166 78.6277C76.6887 78.6277 75.0584 80.428 74.7255 84.0243Z" fill="#092F38"/>
<path d="M104.939 74.6523C107.176 74.6523 108.959 75.3931 110.287 76.8704C111.614 78.3477 112.276 80.4667 112.276 83.2318V97.4964H106.928V83.8563C106.928 80.6778 105.613 79.0885 102.989 79.0885C99.8946 79.0885 98.3449 81.1515 98.3449 85.2819V97.4964H92.9972V80.8027C92.9972 78.9076 92.9844 77.5122 92.9545 76.6206C92.9246 76.2286 92.7453 75.8971 92.4167 75.6171C92.1137 75.3372 91.7253 75.1993 91.2559 75.1993H98.302C98.302 76.8187 98.3153 77.8481 98.3449 78.296C99.5611 75.8712 101.759 74.6567 104.939 74.6567V74.6523Z" fill="#092F38"/>
<path d="M128.638 69.7432C128.719 69.7432 128.79 69.8041 128.809 69.8828L128.814 69.9181C129.02 76.1213 133.972 81.115 140.124 81.3225H140.124C140.221 81.3225 140.296 81.4006 140.296 81.4997C140.296 81.5973 140.217 81.6731 140.123 81.677C133.971 81.8847 129.019 86.8788 128.814 93.0821C128.814 93.1755 128.736 93.2563 128.638 93.2563C128.553 93.2563 128.485 93.1955 128.467 93.1167L128.462 93.0813C128.256 86.8781 123.303 81.8845 117.152 81.677C117.059 81.677 116.98 81.5983 116.98 81.4997C116.98 81.4022 117.058 81.3258 117.152 81.3217C123.304 81.1142 128.256 76.1208 128.462 69.9173C128.462 69.8239 128.54 69.7432 128.638 69.7432Z" fill="#0D6459" stroke="white" stroke-width="0.075"/>
</g>
<defs>
<clipPath id="clip0_5693_90536">
<rect width="127" height="33" fill="white" transform="translate(18 65)"/>
</clipPath>
</defs>
</svg>
