<svg width="164" height="164" viewBox="0 0 164 164" fill="none" xmlns="http://www.w3.org/2000/svg">
<mask id="mask0_7380_80321" style="mask-type:luminance" maskUnits="userSpaceOnUse" x="0" y="0" width="164" height="164">
<circle cx="82" cy="82" r="82" fill="white"/>
</mask>
<g mask="url(#mask0_7380_80321)">
<rect width="164" height="164" fill="#FFEECE"/>
<rect width="164" height="164" stroke="black" stroke-width="0.117174" stroke-linejoin="bevel"/>
<rect width="164" height="164" stroke="black" stroke-width="0.117174" stroke-linejoin="bevel"/>
<rect width="164" height="164" fill="white"/>
</g>
<g clip-path="url(#clip0_7380_80321)">
<path d="M43.3993 72.6406H27.7966C28.4552 72.6406 29.0059 72.8503 29.445 73.2733C29.8841 73.6702 30.1037 74.1306 30.1037 74.6548V79.2034H42.8486V83.3815H27.7966C28.1389 83.3815 28.444 83.4451 28.712 83.5687C29.0059 83.6698 29.2478 83.8158 29.445 84.0179C29.6646 84.2164 29.8245 84.441 29.9213 84.6881C30.0441 84.9127 30.1037 85.1486 30.1037 85.3956V91.1012H43.3993V95.2418H25.3071V70.5142C25.3071 70.1922 25.2104 69.8815 25.0131 69.5819C24.8196 69.26 24.5368 68.9979 24.1722 68.7995C23.8298 68.6011 23.4391 68.5 23 68.5H43.3993V72.6406Z" fill="#18444F"/>
<path d="M61.8963 89.7646C61.8963 91.9997 61.9186 93.6881 61.9633 94.83H57.5388V92.6736C56.5862 94.3845 54.8038 95.2418 52.1952 95.2418C49.903 95.2418 48.0796 94.3845 46.7177 92.6736C45.3558 90.9627 44.6748 88.6902 44.6748 85.8599C44.6748 83.0296 45.4116 80.6785 46.8852 78.8777C48.3588 77.0508 50.357 76.141 52.8725 76.141C54.1414 76.141 55.1648 76.3357 55.935 76.7213C56.7276 77.1107 57.2634 77.5674 57.5351 78.0916V71.963C57.5351 71.6448 57.3974 71.3565 57.1258 71.1057C56.8541 70.8548 56.5118 70.7275 56.1062 70.7275H61.8888V89.7609L61.8963 89.7646ZM53.3897 91.6478C54.1154 91.6478 54.7405 91.5354 55.2614 91.3071C55.8048 91.0787 56.2252 90.7829 56.5192 90.416C56.8132 90.0492 57.0513 89.5961 57.2337 89.0459C57.416 88.4992 57.5388 87.9601 57.6095 87.436C57.6765 86.8894 57.71 86.2717 57.71 85.5866C57.71 84.6506 57.6542 83.8644 57.5388 83.2243C57.4495 82.5616 57.256 81.9589 56.962 81.4085C56.6904 80.8395 56.2699 80.4165 55.7043 80.1431C55.1387 79.8698 54.4242 79.7313 53.5609 79.7313C52.6306 79.7313 51.838 79.9709 51.1794 80.4501C50.5207 80.9293 50.0221 81.6144 49.6835 82.5054C49.3672 83.3965 49.2072 84.4672 49.2072 85.7251C49.2072 87.6419 49.5719 89.1132 50.2975 90.1428C51.0454 91.1461 52.0799 91.6478 53.3935 91.6478H53.3897Z" fill="#18444F"/>
<path d="M79.9807 85.077C79.9807 85.7621 79.9583 86.2751 79.9137 86.6157H67.6637C67.6637 88.0758 68.0135 89.2963 68.7168 90.2772C69.4424 91.2581 70.4508 91.7484 71.7458 91.7484C72.8138 91.7484 73.5952 91.5538 74.0939 91.1682C74.5925 90.7788 75.0018 90.221 75.3181 89.491H79.7053C79.523 90.1536 79.2513 90.7788 78.8904 91.3741C78.5518 91.9656 78.0754 92.5833 77.4614 93.2235C76.8698 93.8412 76.066 94.3317 75.0465 94.6948C74.0492 95.0617 72.9031 95.2414 71.6081 95.2414C70.2015 95.2414 68.9438 94.9905 67.8312 94.4889C66.7409 93.9648 65.8701 93.2572 65.2115 92.3662C64.5528 91.4751 64.0542 90.4943 63.7156 89.4236C63.3993 88.3266 63.2393 87.1661 63.2393 85.9306C63.2393 83.0105 63.976 80.6481 65.4496 78.8436C66.9232 77.0391 69.0442 76.1406 71.8128 76.1406C73.264 76.1406 74.5366 76.4027 75.6232 76.9268C76.7358 77.4285 77.5843 78.1249 78.176 79.0159C78.7899 79.8844 79.2439 80.8316 79.5379 81.8574C79.8318 82.8607 79.9807 83.9352 79.9807 85.077ZM67.7642 83.8079H75.5562C75.5339 82.4826 75.2176 81.4231 74.6036 80.6257C73.9896 79.8058 73.0482 79.394 71.7793 79.394C69.3754 79.394 68.0358 80.8653 67.7642 83.8116V83.8079Z" fill="#18444F"/>
<path d="M89.9341 83.4636C91.3629 83.8043 92.5423 84.1937 93.4729 84.6279C94.4028 85.0397 95.0955 85.5189 95.549 86.0656C96.0255 86.5897 96.3419 87.1138 96.5019 87.6416C96.662 88.1658 96.7399 88.806 96.7399 89.5585C96.7399 91.202 96.0925 92.561 94.8015 93.6317C93.5322 94.7062 91.6608 95.2415 89.1859 95.2415C86.7115 95.2415 84.8324 94.7174 83.5374 93.6654C82.2424 92.5947 81.4834 91.1795 81.2563 89.42H85.5766C86.0306 91.1309 87.2884 91.9882 89.3537 91.9882C91.3036 91.9882 92.2782 91.2806 92.2782 89.8655C92.2782 89.2028 92.0179 88.69 91.4968 88.3268C90.998 87.9599 90.0343 87.5968 88.6055 87.2298C87.2214 86.8892 86.0752 86.5223 85.1673 86.1329C84.2593 85.7435 83.5672 85.313 83.0908 84.8338C82.6369 84.3322 82.3317 83.8305 82.1718 83.3288C82.0117 82.8272 81.9336 82.2319 81.9336 81.5506C81.9336 80.8692 82.0601 80.1803 82.3094 79.5663C82.5587 78.9486 82.9569 78.3796 83.5002 77.8554C84.0434 77.3313 84.7803 76.9195 85.7106 76.6237C86.6632 76.3055 87.7648 76.1445 89.0112 76.1445C90.2575 76.1445 91.3591 76.3168 92.312 76.6574C93.2643 76.9756 94.0125 77.4099 94.5559 77.9565C95.0987 78.4807 95.5082 79.0535 95.7799 79.6675C96.074 80.2627 96.2449 80.8879 96.2895 81.5506H92.1034C91.7609 80.068 90.6632 79.3267 88.8026 79.3267C88.189 79.3267 87.6787 79.4166 87.2699 79.6C86.8827 79.7835 86.6111 80.0118 86.4548 80.2852C86.3171 80.536 86.2501 80.8317 86.2501 81.1762C86.2501 81.7227 86.4883 82.157 86.9644 82.4753C87.4631 82.7935 88.4492 83.1267 89.9265 83.4674L89.9341 83.4636Z" fill="#18444F"/>
<path d="M113.667 90.3448C113.667 92.6023 113.745 94.0998 113.905 94.8299H109.719C109.581 94.4181 109.492 93.7554 109.447 92.8457C108.494 94.4442 106.749 95.2417 104.208 95.2417C103.366 95.2417 102.597 95.1406 101.893 94.9347C101.19 94.7063 100.602 94.4218 100.126 94.0773C99.6715 93.7105 99.2734 93.2912 98.9348 92.8119C98.6184 92.3103 98.3805 91.7974 98.2204 91.2733C98.0826 90.7267 98.0156 90.1539 98.0156 89.5624C98.0156 87.5557 98.7638 86.047 100.263 85.0437C101.759 84.0403 103.88 83.5387 106.626 83.5387H109.384V82.2733C109.384 81.4271 109.157 80.7345 108.703 80.1842C108.271 79.6376 107.445 79.3643 106.217 79.3643C105.105 79.3643 104.334 79.5815 103.902 80.0157C103.493 80.4276 103.21 81.0303 103.05 81.8315H98.864C98.9309 81.0565 99.1019 80.3489 99.3736 79.7088C99.6676 79.0461 100.099 78.4434 100.665 77.893C101.23 77.3427 101.993 76.9234 102.946 76.6276C103.921 76.3094 105.067 76.1484 106.385 76.1484C111.237 76.1709 113.667 78.2375 113.667 82.3444V90.356V90.3448ZM109.413 86.8182V86.3053H107.065C105.454 86.3053 104.275 86.5561 103.527 87.0578C102.801 87.537 102.436 88.2783 102.436 89.2816C102.436 90.079 102.686 90.7417 103.184 91.2658C103.683 91.7674 104.409 92.0183 105.361 92.0183C106.225 92.0183 106.927 91.8797 107.471 91.6065C108.037 91.3332 108.446 90.9326 108.695 90.4085C108.967 89.8843 109.149 89.349 109.238 88.7986C109.35 88.252 109.41 87.5894 109.41 86.8144L109.413 86.8182Z" fill="#18444F"/>
<path d="M127.299 72.3809C127.366 72.3809 127.424 72.4307 127.44 72.4951L127.443 72.524C127.612 77.5994 131.666 81.6851 136.702 81.8548C136.781 81.8548 136.843 81.9188 136.843 81.9999C136.843 82.0797 136.779 82.1417 136.701 82.1449C131.665 82.3149 127.612 86.4009 127.443 91.4763C127.443 91.5528 127.38 91.6189 127.299 91.6189C127.23 91.6189 127.174 91.5692 127.159 91.5046L127.155 91.4757C126.987 86.4003 122.933 82.3147 117.897 82.1449H117.896C117.82 82.1449 117.755 82.0805 117.755 81.9999C117.755 81.9201 117.82 81.8575 117.897 81.8542C122.933 81.6844 126.987 77.5989 127.155 72.5234C127.155 72.4469 127.219 72.3809 127.299 72.3809Z" fill="#0D6459" stroke="white" stroke-width="0.075"/>
</g>
<defs>
<clipPath id="clip0_7380_80321">
<rect width="118" height="27" fill="white" transform="translate(23 68.5)"/>
</clipPath>
</defs>
</svg>
