<?xml version="1.0" encoding="UTF-8"?>
<svg version="1.1" xmlns="http://www.w3.org/2000/svg" width="960" height="228">
<path d="M0 0 C8.91 0 17.82 0 27 0 C28.85997082 1.85997082 28.12278187 4.51684679 28.12908131 6.99185902 C28.12616847 7.8605186 28.12325563 8.72917817 28.12025452 9.62416077 C28.12153615 10.997516 28.12153615 10.997516 28.12284368 12.39861578 C28.12450129 15.49110506 28.11897254 18.58354104 28.11352539 21.67602539 C28.11324355 23.88304137 28.11340118 26.09005744 28.1139679 28.29707336 C28.11425601 34.30922725 28.10835711 40.32136137 28.10139394 46.33351064 C28.09516263 52.60893101 28.09455678 58.88435179 28.09336853 65.15977478 C28.09060884 75.69937477 28.08435333 86.23896825 28.07543945 96.77856445 C28.06626602 107.63631148 28.05918485 118.49405653 28.05493164 129.35180664 C28.05466892 130.02063093 28.05440619 130.68945521 28.05413551 131.3785469 C28.05283051 134.73370822 28.05156679 138.08886954 28.05032361 141.44403088 C28.03985772 169.29602584 28.02205668 197.14801202 28 225 C18.76 225 9.52 225 0 225 C-0.0093457 222.25083252 -0.01869141 219.50166504 -0.02832031 216.66918945 C-0.06221922 207.54481738 -0.11783944 198.4206684 -0.18390274 189.29647541 C-0.22326562 183.76917211 -0.2555088 178.24202546 -0.27099609 172.71459961 C-0.28623658 167.37163539 -0.32081236 162.02910216 -0.36830902 156.6863308 C-0.38304693 154.65682935 -0.39103661 152.62726634 -0.39188385 150.59771156 C-0.40133143 139.30515315 -0.78917941 129.60940998 -5 119 C-5.32083557 118.0706514 -5.64167114 117.1413028 -5.972229 116.18379211 C-10.68585811 102.53106176 -21.53378001 94.26984999 -33.9375 87.625 C-47.78762305 81.13275482 -61.92328554 80.07240673 -76.49609375 84.6640625 C-84.77950477 87.8222861 -91.87685652 91.54396733 -98 98 C-98.65742188 98.59941406 -99.31484375 99.19882813 -99.9921875 99.81640625 C-110.41625422 109.48353866 -116.36933393 122.30293322 -117.203125 136.4453125 C-117.42059585 153.51677432 -113.05289652 167.40612959 -101.08984375 179.88671875 C-100.05537109 180.93279297 -100.05537109 180.93279297 -99 182 C-98.175 182.9075 -97.35 183.815 -96.5 184.75 C-83.56104291 196.39506138 -67.87408382 198.77792663 -51 198 C-42.05637492 197.19619297 -35.48938086 194.99292057 -28 190 C-26.68 190 -25.36 190 -24 190 C-22.99645963 194.29084682 -21.99776629 198.58280716 -21 202.875 C-20.71382813 204.09832031 -20.42765625 205.32164062 -20.1328125 206.58203125 C-19.72675781 208.33193359 -19.72675781 208.33193359 -19.3125 210.1171875 C-19.06113281 211.19597168 -18.80976563 212.27475586 -18.55078125 213.38623047 C-18 216 -18 216 -18 218 C-19.45245495 218.78185341 -20.91243917 219.54971828 -22.375 220.3125 C-23.18710937 220.74175781 -23.99921875 221.17101562 -24.8359375 221.61328125 C-35.02358723 226.07823885 -44.33475422 226.55887688 -55.33764648 226.5559082 C-58.03321483 226.56242916 -60.72500913 226.61690897 -63.41992188 226.67382812 C-87.06301061 226.90274726 -104.99412357 216.88588705 -122 201 C-122.85980469 200.19691406 -123.71960938 199.39382812 -124.60546875 198.56640625 C-139.22928116 183.64055296 -145.64769906 160.51932879 -146.3125 140.1875 C-146.04280143 127.54537931 -143.17603877 115.51173649 -138 104 C-137.50757813 102.84757812 -137.01515625 101.69515625 -136.5078125 100.5078125 C-132.33266923 91.37843224 -127.02984879 85.02984879 -120 78 C-119.42765625 77.34515625 -118.8553125 76.6903125 -118.265625 76.015625 C-104.11780193 60.11755578 -81.43505551 54.77556435 -61.23828125 52.71875 C-41.70963204 51.90079611 -24.37448005 59.21809565 -8 69 C-5.69 70.32 -3.38 71.64 -1 73 C-0.67 48.91 -0.34 24.82 0 0 Z " fill="#268CED" transform="translate(330,2)"/>
<path d="M0 0 C1.22777704 0.7730448 2.45668043 1.54430867 3.6875 2.3125 C4.8321875 3.1478125 4.8321875 3.1478125 6 4 C6 4.66 6 5.32 6 6 C6.5878125 6.26167969 7.175625 6.52335937 7.78125 6.79296875 C10.119138 8.06481275 11.64669784 9.41286528 13.5 11.3125 C14.0671875 11.88613281 14.634375 12.45976563 15.21875 13.05078125 C18.8732097 17.04985008 21.64258886 20.92471549 24 25.8125 C25.65223519 29.22490535 27.32276391 32.6026537 29.125 35.9375 C37.17275251 53.37429711 35 62.88144669 35 84 C4.64 84 -25.72 84 -57 84 C-57 74.43 -57 64.86 -57 55 C-36.21 55 -15.42 55 6 55 C1.67146777 45.45549233 1.67146777 45.45549233 -3.765625 36.875 C-5 35 -5 35 -6 32 C-7.3153341 31.29848848 -8.65117592 30.63474075 -10 30 C-11.75 28.5 -11.75 28.5 -13 27 C-13 26.34 -13 25.68 -13 25 C-14.03447266 24.61134766 -14.03447266 24.61134766 -15.08984375 24.21484375 C-18.36258682 22.84863825 -21.42784539 21.22076438 -24.5625 19.5625 C-39.17492554 12.13059926 -52.94261193 11.23389424 -68.63671875 15.8828125 C-80.19994486 19.72379121 -92.04460149 27.83966295 -99 38 C-99.43570313 38.62777344 -99.87140625 39.25554687 -100.3203125 39.90234375 C-108.52943836 53.1008485 -110.27934829 69.85751538 -107.046875 84.86328125 C-105.12333928 92.68687762 -102.78637025 99.43583508 -98 106 C-98 106.66 -98 107.32 -98 108 C-97.34 108 -96.68 108 -96 108 C-94.81585309 109.44074713 -93.63411914 110.88357491 -92.46728516 112.33837891 C-90.04303766 115.0837081 -87.17448512 117.09497818 -84.1875 119.1875 C-83.60935547 119.61224609 -83.03121094 120.03699219 -82.43554688 120.47460938 C-70.6399337 128.85535995 -55.04482577 130.78569049 -40.94482422 128.6953125 C-32.70473622 127.17418488 -25.34838814 124.63187338 -18.13671875 120.26953125 C-16 119 -16 119 -13 118 C-12.28891701 116.68981559 -11.62746983 115.35222181 -11 114 C-9.99564028 112.71983165 -8.95309739 111.46871878 -7.875 110.25 C-7.33617187 109.63640625 -6.79734375 109.0228125 -6.2421875 108.390625 C-5.83226562 107.93171875 -5.42234375 107.4728125 -5 107 C-0.53877271 107.48440647 1.29361811 108.86880198 4.3125 112.125 C8.34285662 116.35146458 12.54667795 120.22620393 17 124 C16.54870825 128.66881828 14.94956322 130.42945806 11.4375 133.4375 C10.53902344 134.20835937 9.64054688 134.97921875 8.71484375 135.7734375 C-1.31578947 144 -1.31578947 144 -4 144 C-4 144.66 -4 145.32 -4 146 C-6.64282484 147.27741591 -9.28898587 148.54697567 -11.9375 149.8125 C-12.67291016 150.16892578 -13.40832031 150.52535156 -14.16601562 150.89257812 C-14.90400391 151.24384766 -15.64199219 151.59511719 -16.40234375 151.95703125 C-17.06741943 152.27647705 -17.73249512 152.59592285 -18.41772461 152.92504883 C-25.4948734 155.87112863 -31.630988 157.46682205 -39.3203125 157.46875 C-40.18204071 157.47636353 -41.04376892 157.48397705 -41.93161011 157.49182129 C-43.74506763 157.50255702 -45.55858666 157.50550219 -47.37207031 157.50097656 C-50.09809853 157.50000954 -52.82125549 157.54159445 -55.546875 157.5859375 C-73.29155487 157.70903961 -86.27850594 152.86376174 -101 143 C-101.56992676 142.63310059 -102.13985352 142.26620117 -102.72705078 141.88818359 C-121.00519209 129.99440032 -132.20611368 108.82505457 -137 88 C-141.49450263 66.12675389 -136.18199694 43.98308574 -124.625 25.25 C-123.43859696 23.48505885 -122.22908975 21.7354849 -121 20 C-120.26394531 18.95585938 -119.52789062 17.91171875 -118.76953125 16.8359375 C-111.39835747 6.68668315 -111.39835747 6.68668315 -106 3 C-105.34 3 -104.68 3 -104 3 C-103.67 2.34 -103.34 1.68 -103 1 C-100.91690728 -0.34613553 -98.84545762 -1.59749639 -96.6875 -2.8125 C-95.74015991 -3.34653442 -95.74015991 -3.34653442 -94.77368164 -3.89135742 C-64.38284645 -20.72091643 -28.61969301 -20.10716894 0 0 Z " fill="#278FED" transform="translate(514,71)"/>
<path d="M0 0 C0 0.66 0 1.32 0 2 C0.721875 2.268125 1.44375 2.53625 2.1875 2.8125 C6.48274005 4.6260458 10.44428745 6.97105968 14 10 C14 10.66 14 11.32 14 12 C14.99 12.33 15.98 12.66 17 13 C22.23558988 17.92202033 26.08195312 23.86440878 29.625 30.0625 C30.33438721 31.29335327 30.33438721 31.29335327 31.05810547 32.54907227 C41.48013446 51.17632969 41 65.4424124 41 88 C10.64 88 -19.72 88 -51 88 C-51 78.43 -51 68.86 -51 59 C-30.54 58.67 -10.08 58.34 11 58 C4.39051031 43.71885736 4.39051031 43.71885736 -5.8125 32.75 C-7.64453125 31.296875 -7.64453125 31.296875 -9 30 C-9 29.34 -9 28.68 -9 28 C-9.71027344 27.73058594 -10.42054687 27.46117187 -11.15234375 27.18359375 C-14.06799007 25.97174075 -16.77890856 24.5508693 -19.5625 23.0625 C-35.39310698 15.14719651 -50.52928576 15.65053726 -67 21 C-70.28739349 22.34664312 -73.08297016 23.98131209 -76 26 C-76.96550781 26.63808594 -77.93101563 27.27617188 -78.92578125 27.93359375 C-92.90984817 37.70328434 -99.47981755 49.81415536 -102.4609375 66.30859375 C-104.69297456 81.59319533 -101.97508893 97.27437208 -93 110 C-82.49637909 122.54236721 -69.3903903 131.14255851 -53 133 C-39.1664755 134.04023136 -26.11679087 131.83257049 -13.91796875 125.05078125 C-12 124 -12 124 -9 123 C-8.31513275 121.67592331 -7.65129797 120.34090759 -7 119 C-5 116.75 -5 116.75 -3 115 C-2.34 115 -1.68 115 -1 115 C-0.01 113.02 -0.01 113.02 1 111 C4.40222284 111.58752495 6.0994095 112.70594726 8.56640625 115.08984375 C9.21673828 115.70923828 9.86707031 116.32863281 10.53710938 116.96679688 C11.20548828 117.61712891 11.87386719 118.26746094 12.5625 118.9375 C13.89538649 120.21926908 15.22995717 121.49928967 16.56640625 122.77734375 C17.15365479 123.34702881 17.74090332 123.91671387 18.34594727 124.50366211 C20.13632439 126.19693578 20.13632439 126.19693578 23 128 C21.38108203 137.13389524 10.10104072 143.2422807 3.07739258 148.33691406 C-3.9180382 153.21741376 -10.89881681 156.36809387 -19 159 C-19.87052002 159.34401855 -20.74104004 159.68803711 -21.63793945 160.04248047 C-25.84082156 161.23946715 -29.67896419 161.34261424 -34.02734375 161.37109375 C-34.8933168 161.38012222 -35.75928986 161.3891507 -36.65150452 161.39845276 C-38.48288543 161.41292053 -40.31431763 161.42183334 -42.14575195 161.42553711 C-44.89823138 161.43733173 -47.64839035 161.48646209 -50.40039062 161.53710938 C-64.64428618 161.66982073 -76.76758641 159.49771943 -88.9375 151.5625 C-89.86731689 150.98000488 -89.86731689 150.98000488 -90.81591797 150.38574219 C-109.0153433 138.8516354 -123.46514662 121.1661295 -129.53477478 100.1481781 C-130.01376014 97.93646256 -130.16038234 95.92981857 -130.20874023 93.66894531 C-130.22803085 92.81995667 -130.24732147 91.97096802 -130.26719666 91.09625244 C-130.32574526 87.18124323 -130.37432931 83.26640751 -130.4050293 79.35107422 C-130.42645329 77.30500245 -130.46036636 75.25901833 -130.50756836 73.21337891 C-130.8828099 56.76952002 -129.02928659 43.50418876 -119.625 29.625 C-119.05918213 28.78231567 -119.05918213 28.78231567 -118.48193359 27.92260742 C-109.65908994 14.97936685 -109.65908994 14.97936685 -104 10 C-103.34 10 -102.68 10 -102 10 C-101.67 9.01 -101.34 8.02 -101 7 C-100.01 6.67 -99.02 6.34 -98 6 C-97.34 5.34 -96.68 4.68 -96 4 C-87.07075923 -1.71320066 -78.15224603 -5.87036025 -68 -9 C-67.23945312 -9.23460937 -66.47890625 -9.46921875 -65.6953125 -9.7109375 C-43.3767447 -15.89560087 -20.0504776 -10.49040988 0 0 Z " fill="#278FED" transform="translate(130,67)"/>
<path d="M0 0 C1.58361328 1.07121094 1.58361328 1.07121094 3.19921875 2.1640625 C13.12565214 9.38828406 20.12090643 20.16322986 22.45117188 32.36181641 C22.69009828 34.23491705 22.853695 36.11739896 23 38 C22.39414062 38.17015625 21.78828125 38.3403125 21.1640625 38.515625 C16.59875765 39.83605163 12.19492148 41.28047852 7.8125 43.125 C3.81481496 44.77965005 0.30214946 45.62590005 -4 46 C-4.17015625 45.34773438 -4.3403125 44.69546875 -4.515625 44.0234375 C-6.02094628 38.59467245 -7.70367371 34.54665695 -11 30 C-11 29.34 -11 28.68 -11 28 C-11.66 28 -12.32 28 -13 28 C-14.0828125 26.88625 -14.0828125 26.88625 -15.1875 25.75 C-21.84933868 19.23620218 -28.88121711 17.40625261 -37.9375 16.6875 C-47.76862144 17.01910529 -56.45050133 21.24848097 -63.19921875 28.296875 C-67.56707293 33.49631694 -70.58719402 38.6749041 -73 45 C-73.33 45.66 -73.66 46.32 -74 47 C-73.31035156 47.17015625 -72.62070312 47.3403125 -71.91015625 47.515625 C-66.47626907 48.91695667 -61.46953643 50.48997026 -56.4609375 53.03515625 C-54.19484198 53.92360957 -52.15000226 54.42081198 -49.7734375 54.90625 C-45.01335603 55.91583143 -40.72540597 57.55572032 -36.25 59.4375 C-27.59129343 62.98745262 -18.87611466 66.37319444 -10.125 69.6875 C-8.9380957 70.13859131 -7.75119141 70.58968262 -6.52832031 71.05444336 C3.58439622 74.88142631 13.73164591 78.6091046 24 82 C28.18512554 101.9914479 24.51048017 120.40054419 13.5859375 137.7578125 C5.75827545 148.82450713 -7.29306858 156.76435619 -20 161 C-25.26533455 161.27911255 -30.53044965 161.31370144 -35.80249023 161.35009766 C-37.54318717 161.36654823 -39.28381967 161.39369172 -41.02416992 161.43212891 C-59.72581628 161.84237008 -72.00129934 156.69177017 -85.75 143.6875 C-92.99633687 136.142479 -99.84640202 126.54437116 -100.06640625 115.73828125 C-100.04449219 114.83464844 -100.02257812 113.93101562 -100 113 C-97.00829014 111.81126504 -94.00555136 110.65324119 -91 109.5 C-90.16082031 109.16613281 -89.32164062 108.83226562 -88.45703125 108.48828125 C-83.035085 106.42878229 -78.79781841 105.62421547 -73 106 C-72.8040625 106.59425781 -72.608125 107.18851562 -72.40625 107.80078125 C-69.2514654 116.54442995 -64.592906 125.67734912 -56 130 C-43.45096495 134.81740208 -31.40200097 133.87005404 -19 129 C-11.40289528 124.91111243 -5.93951053 118.33768502 -3.1875 110.1875 C-2.78078209 108.79479929 -2.38361801 107.39923978 -2 106 C-1.505 104.515 -1.505 104.515 -1 103 C-2.21816406 102.77183594 -3.43632813 102.54367188 -4.69140625 102.30859375 C-11.02493742 100.90017894 -16.9248846 98.46131547 -22.9375 96.0625 C-29.73150868 93.36609101 -36.45545131 90.79585679 -43.48168945 88.77612305 C-48.45857658 87.24228648 -53.27904347 85.27528859 -58.125 83.375 C-60.41241226 82.48608275 -62.70018176 81.59808431 -64.98828125 80.7109375 C-66.14537598 80.26202148 -67.3024707 79.81310547 -68.49462891 79.35058594 C-75.09356852 76.80807765 -81.72022355 74.33965951 -88.34619141 71.86865234 C-89.27995605 71.52012207 -90.2137207 71.1715918 -91.17578125 70.8125 C-91.98958252 70.50957031 -92.80338379 70.20664063 -93.6418457 69.89453125 C-96.10702638 68.95940111 -98.55485411 67.98620432 -101 67 C-103.29137791 50.10108789 -102.61967917 30.39548385 -92.375 15.9375 C-69.15744224 -12.53025927 -31.44203308 -21.82067889 0 0 Z " fill="#31A0E9" transform="translate(674,67)"/>
<path d="M0 0 C9.24 0 18.48 0 28 0 C28.01458252 3.05733398 28.02916504 6.11466797 28.04418945 9.26464844 C28.09466701 19.39881616 28.16128512 29.53283236 28.23571491 39.66685104 C28.28032354 45.80734682 28.31960057 51.94777769 28.34643555 58.08837891 C28.37256338 64.02129713 28.41303262 69.95396434 28.46318626 75.88672638 C28.47979101 78.14313876 28.49134488 80.3995945 28.49761391 82.65605927 C28.54856846 99.31997204 28.90652711 112.09042662 39 126 C39.40089844 126.6084375 39.80179688 127.216875 40.21484375 127.84375 C45.92935947 135.81560111 56.85858417 138.37485941 66 140 C78.18138299 141.39215806 92.071749 136.75583151 101.9375 129.76171875 C105.59464888 126.63790409 108.30468832 122.95852794 111 119 C111.46277344 118.32710938 111.92554688 117.65421875 112.40234375 116.9609375 C117.49385033 109.19213415 120.98294104 101.47765093 121.31640625 92.140625 C121.35451416 91.13547852 121.39262207 90.13033203 121.43188477 89.09472656 C121.47498779 87.8259668 121.51809082 86.55720703 121.5625 85.25 C121.706875 81.2075 121.85125 77.165 122 73 C131.24 73 140.48 73 150 73 C150 104.02 150 135.04 150 167 C140.76 167 131.52 167 122 167 C121.505 158.09 121.505 158.09 121 149 C120.01 149.99 119.02 150.98 118 152 C117.34 152 116.68 152 116 152 C115.67 152.99 115.34 153.98 115 155 C112.4453125 156.90234375 112.4453125 156.90234375 109.125 158.9375 C108.05507813 159.60652344 106.98515625 160.27554688 105.8828125 160.96484375 C104.59796951 161.66092007 103.30280852 162.33815883 102 163 C100.93785278 163.55699585 100.93785278 163.55699585 99.85424805 164.12524414 C91.07982021 168.02605429 81.87793341 167.63958497 72.45776367 167.57641602 C69.57158103 167.56254365 66.68864505 167.59671236 63.80273438 167.63476562 C53.59879542 167.67734576 45.05996048 167.25828949 36 162 C35.0726001 161.49154541 34.1452002 160.98309082 33.18969727 160.45922852 C32.46709717 159.97768311 31.74449707 159.4961377 31 159 C31 158.34 31 157.68 31 157 C30.41605469 156.731875 29.83210937 156.46375 29.23046875 156.1875 C19.25967981 150.87905895 9.04921717 139.51899957 5 129 C1.50580161 117.29517884 -0.16001388 105.74756371 -0.11352539 93.54492188 C-0.11367142 92.52938232 -0.11381744 91.51384277 -0.1139679 90.4675293 C-0.11327518 87.1345806 -0.10551296 83.80168885 -0.09765625 80.46875 C-0.09578979 78.1484785 -0.09436696 75.82820661 -0.09336853 73.50793457 C-0.08956131 67.41868999 -0.07974642 61.32946948 -0.06866455 55.24023438 C-0.05841177 49.01953456 -0.05386264 42.79883084 -0.04882812 36.578125 C-0.03812248 24.38540442 -0.02054028 12.19270798 0 0 Z " fill="#2995E9" transform="translate(723,61)"/>
<path d="M0 0 C0 9.24 0 18.48 0 28 C-7.125 29.3125 -7.125 29.3125 -9.33251953 29.7043457 C-17.42290895 31.26120258 -23.5053484 34.95021865 -29 41 C-34.98636842 50.25851438 -36.29617859 59.49473795 -36.31884766 70.28125 C-36.32889328 71.38457169 -36.3389389 72.48789337 -36.34928894 73.62464905 C-36.380032 77.24976103 -36.39713157 80.87479944 -36.4140625 84.5 C-36.43278126 87.02206043 -36.4523552 89.54411465 -36.4727478 92.06616211 C-36.51876934 98.01220461 -36.55620433 103.95826139 -36.58942068 109.90438557 C-36.62774525 116.67838182 -36.67712804 123.45228366 -36.72740483 130.2262001 C-36.83050842 144.15073693 -36.91837898 158.07532153 -37 172 C-46.24 172 -55.48 172 -65 172 C-65 116.23 -65 60.46 -65 3 C-55.76 3 -46.52 3 -37 3 C-36.67 5.64 -36.34 8.28 -36 11 C-35.48953125 10.61328125 -34.9790625 10.2265625 -34.453125 9.828125 C-23.76924106 2.17513012 -12.98872664 0 0 0 Z " fill="#136DF3" transform="translate(960,56)"/>
<path d="M0 0 C5.52706913 0.72724594 10.69960141 2.33445973 16 4 C20.18512554 23.9914479 16.51048017 42.40054419 5.5859375 59.7578125 C-2.24172455 70.82450713 -15.29306858 78.76435619 -28 83 C-33.26533455 83.27911255 -38.53044965 83.31370144 -43.80249023 83.35009766 C-45.54318717 83.36654823 -47.28381967 83.39369172 -49.02416992 83.43212891 C-67.72581628 83.84237008 -80.00129934 78.69177017 -93.75 65.6875 C-100.99633687 58.142479 -107.84640202 48.54437116 -108.06640625 37.73828125 C-108.04449219 36.83464844 -108.02257812 35.93101562 -108 35 C-105.00829014 33.81126504 -102.00555136 32.65324119 -99 31.5 C-98.16082031 31.16613281 -97.32164062 30.83226562 -96.45703125 30.48828125 C-91.035085 28.42878229 -86.79781841 27.62421547 -81 28 C-80.70609375 28.89138672 -80.70609375 28.89138672 -80.40625 29.80078125 C-77.2514654 38.54442995 -72.592906 47.67734912 -64 52 C-51.45096495 56.81740208 -39.40200097 55.87005404 -27 51 C-17.45683492 45.86371051 -13.12217872 37.96497893 -10 28 C-9.51408418 26.51094477 -9.02584247 25.02264632 -8.53515625 23.53515625 C-8.17381592 22.4356665 -8.17381592 22.4356665 -7.80517578 21.31396484 C-5.42895612 14.11031667 -2.98197271 6.98132434 0 0 Z " fill="#309DEA" transform="translate(682,145)"/>
<path d="M0 0 C15.68254445 -0.04010881 15.68254445 -0.04010881 22.34570312 -0.04882812 C26.89983275 -0.05481573 31.45394235 -0.06191383 36.00805664 -0.07543945 C39.67792544 -0.0862712 43.34777278 -0.09227744 47.01765633 -0.09487724 C48.42074992 -0.09673097 49.82384229 -0.1003506 51.2269268 -0.10573006 C53.1856968 -0.11294419 55.1444882 -0.11340809 57.10327148 -0.11352539 C58.22023911 -0.115746 59.33720673 -0.11796661 60.48802185 -0.12025452 C63 0 63 0 64 1 C66.0708472 1.1584265 68.14678029 1.25124422 70.22265625 1.31640625 C71.48271484 1.35830078 72.74277344 1.40019531 74.04101562 1.44335938 C75.38150736 1.48317596 76.7220022 1.52288814 78.0625 1.5625 C79.40691523 1.60568042 80.7513166 1.64929456 82.09570312 1.69335938 C85.39700013 1.79985283 88.69848579 1.9004675 92 2 C92 10.91 92 19.82 92 29 C61.64 29 31.28 29 0 29 C0 19.43 0 9.86 0 0 Z " fill="#C5C5C6" transform="translate(457,126)"/>
<path d="M0 0 C15.68254445 -0.04010881 15.68254445 -0.04010881 22.34570312 -0.04882812 C26.89983275 -0.05481573 31.45394235 -0.06191383 36.00805664 -0.07543945 C39.67792544 -0.0862712 43.34777278 -0.09227744 47.01765633 -0.09487724 C48.42074992 -0.09673097 49.82384229 -0.1003506 51.2269268 -0.10573006 C53.1856968 -0.11294419 55.1444882 -0.11340809 57.10327148 -0.11352539 C58.22023911 -0.115746 59.33720673 -0.11796661 60.48802185 -0.12025452 C63 0 63 0 64 1 C66.0708472 1.1584265 68.14678029 1.25124422 70.22265625 1.31640625 C71.48271484 1.35830078 72.74277344 1.40019531 74.04101562 1.44335938 C75.38150736 1.48317596 76.7220022 1.52288814 78.0625 1.5625 C79.40691523 1.60568042 80.7513166 1.64929456 82.09570312 1.69335938 C85.39700013 1.79985283 88.69848579 1.9004675 92 2 C92 10.91 92 19.82 92 29 C61.64 29 31.28 29 0 29 C0 19.43 0 9.86 0 0 Z " fill="#C5C5C5" transform="translate(79,126)"/>
<path d="M0 0 C9.24 0 18.48 0 28 0 C28 31.02 28 62.04 28 94 C18.76 94 9.52 94 0 94 C0 62.98 0 31.96 0 0 Z " fill="#C5C5C6" transform="translate(845,134)"/>
<path d="M0 0 C9.24 0 18.48 0 28 0 C28 30.36 28 60.72 28 92 C18.76 92 9.52 92 0 92 C0 61.64 0 31.28 0 0 Z " fill="#C5C5C6" transform="translate(895,136)"/>
<path d="M0 0 C9.24 0 18.48 0 28 0 C28 29.7 28 59.4 28 90 C18.76 90 9.52 90 0 90 C0 60.3 0 30.6 0 0 Z " fill="#C6C6C5" transform="translate(330,137)"/>
<path d="M0 0 C6.41384137 1.0514494 11.90756509 3.09122409 17.8125 5.78125 C20.39675549 6.76934769 22.6423496 7.39315244 25.328125 7.94140625 C30.05518308 8.9319595 34.30804697 10.56941951 38.75 12.4375 C47.59034346 16.06726431 56.49658698 19.50295942 65.4375 22.875 C66.07514282 23.11556122 66.71278564 23.35612244 67.36975098 23.60397339 C67.99442261 23.8396402 68.61909424 24.07530701 69.26269531 24.31811523 C70.4534668 24.76743408 71.64423828 25.21675293 72.87109375 25.6796875 C73.93255615 26.07913574 74.99401855 26.47858398 76.08764648 26.89013672 C78.73675009 27.89967859 81.37140209 28.93837506 84 30 C82.60948498 34.1550761 81.18333026 38.29701775 79.75 42.4375 C79.35425781 43.62150391 78.95851563 44.80550781 78.55078125 46.02539062 C78.15761719 47.15009766 77.76445313 48.27480469 77.359375 49.43359375 C77.00327148 50.47572021 76.64716797 51.51784668 76.28027344 52.59155273 C75 55 75 55 73.08300781 55.9128418 C69.49572963 56.0629424 66.30680044 54.61997317 63 53.375 C62.24106445 53.09865723 61.48212891 52.82231445 60.70019531 52.53759766 C55.41900857 50.59371898 50.24101065 48.44461855 45.0703125 46.22436523 C42.0589583 45.02351112 39.06356548 44.07010468 35.953125 43.16015625 C29.16996309 41.10465264 22.59533602 38.65069376 16 36.0625 C14.9275 35.64548828 13.855 35.22847656 12.75 34.79882812 C10.59963105 33.96271712 8.44988061 33.12501346 6.30078125 32.28564453 C0.87427126 30.17203495 -4.56290013 28.08618675 -10 26 C-9.65710938 25.12472656 -9.31421875 24.24945313 -8.9609375 23.34765625 C-6.36667754 16.71137191 -3.96469276 10.05338225 -1.796875 3.265625 C-1 1 -1 1 0 0 Z " fill="#C5C5C6" transform="translate(599,114)"/>
</svg>
