<?xml version="1.0" encoding="UTF-8"?>
<svg version="1.1" xmlns="http://www.w3.org/2000/svg" width="600" height="300">
<path d="M0 0 C99 0 198 0 300 0 C300 99 300 198 300 300 C201 300 102 300 0 300 C0 201 0 102 0 0 Z " fill="#FEFEFE" transform="translate(150,0)"/>
<path d="M0 0 C3.63 0 7.26 0 11 0 C11 17.49 11 34.98 11 53 C7.7 53 4.4 53 1 53 C0.67 52.01 0.34 51.02 0 50 C-0.598125 50.495 -1.19625 50.99 -1.8125 51.5 C-6.54077766 53.72507184 -10.86388137 53.77998363 -16 53 C-20.2091892 51.22211142 -22.47217631 48.8445179 -24.875 45 C-28.02050943 36.61197485 -28.07221003 28.53745358 -24.375 20.30859375 C-21.98629226 16.29800774 -19.34102385 13.77555565 -15 12 C-9.48393376 11.23096668 -4.72201309 10.85199128 0 14 C0 9.38 0 4.76 0 0 Z " fill="#1F4853" transform="translate(269,126)"/>
<path d="M0 0 C13.86 0 27.72 0 42 0 C42 2.97 42 5.94 42 9 C32.1 9.33 22.2 9.66 12 10 C12.33 10.66 12.66 11.32 13 12 C13 15.63 13 19.26 13 23 C22.24 23 31.48 23 41 23 C41 25.97 41 28.94 41 32 C31.1 32.33 21.2 32.66 11 33 C11.66 33.66 12.32 34.32 13 35 C13 39.62 13 44.24 13 49 C22.57 49 32.14 49 42 49 C42 51.97 42 54.94 42 58 C28.8 58 15.6 58 2 58 C1.93941406 53.98070312 1.87882813 49.96140625 1.81640625 45.8203125 C1.76545516 42.6198935 1.71353502 39.41949349 1.66095734 36.21910095 C1.60568285 32.8383201 1.55212484 29.45753181 1.50268555 26.07666016 C1.44510333 22.19945734 1.38137434 18.3223977 1.31640625 14.4453125 C1.29969376 13.23070343 1.28298126 12.01609436 1.26576233 10.76467896 C1.24581711 9.64366791 1.22587189 8.52265686 1.20532227 7.36767578 C1.18977798 6.37728302 1.1742337 5.38689026 1.15821838 4.3664856 C1.15192022 1.98171457 1.15192022 1.98171457 0 0 Z " fill="#214854" transform="translate(198,121)"/>
<path d="M0 0 C4.59483274 1.70178991 6.4953923 4.35737564 8.79296875 8.5390625 C9.24707031 12.06591797 9.24707031 12.06591797 9.18359375 15.90625 C9.17793396 16.58583771 9.17227417 17.26542542 9.16644287 17.96560669 C9.14422226 20.11583799 9.09406073 22.26434324 9.04296875 24.4140625 C9.02288489 25.8801841 9.00463743 27.34633208 8.98828125 28.8125 C8.94440686 32.38857258 8.87548318 35.96364881 8.79296875 39.5390625 C5.82296875 39.5390625 2.85296875 39.5390625 -0.20703125 39.5390625 C-0.53703125 38.5490625 -0.86703125 37.5590625 -1.20703125 36.5390625 C-1.78453125 37.1990625 -2.36203125 37.8590625 -2.95703125 38.5390625 C-7.87333746 41.56448171 -12.57950928 41.43642411 -18.20703125 40.5390625 C-20.99443809 39.16631702 -22.1261357 37.95740057 -24.20703125 35.5390625 C-25.56240968 31.47292721 -25.73093703 27.79018371 -25.20703125 23.5390625 C-23.15568521 19.76458579 -20.58669944 17.60860852 -16.5546875 16.03125 C-11.20682109 14.91006669 -5.63883194 15.33565249 -0.20703125 15.5390625 C-1.06744515 11.20676535 -1.06744515 11.20676535 -3.20703125 7.5390625 C-4.72631163 7.46726286 -6.24870607 7.45514243 -7.76953125 7.4765625 C-8.59582031 7.48558594 -9.42210937 7.49460938 -10.2734375 7.50390625 C-11.23056641 7.52130859 -11.23056641 7.52130859 -12.20703125 7.5390625 C-12.86703125 8.8590625 -13.52703125 10.1790625 -14.20703125 11.5390625 C-17.17703125 11.5390625 -20.14703125 11.5390625 -23.20703125 11.5390625 C-23.64453125 9.4140625 -23.64453125 9.4140625 -23.20703125 6.5390625 C-16.60804413 -0.70077113 -9.575134 -1.9997625 0 0 Z " fill="#1B4450" transform="translate(348.20703125,138.4609375)"/>
<path d="M0 0 C4.74363024 2.80745463 6.62589782 5.93929564 9.0625 10.8125 C9.0625 14.1125 9.0625 17.4125 9.0625 20.8125 C0.1525 20.8125 -8.7575 20.8125 -17.9375 20.8125 C-15.69613873 28.46766421 -15.69613873 28.46766421 -11.9375 31.8125 C-9.71246631 32.07145459 -9.71246631 32.07145459 -7.375 31.6875 C-6.58996094 31.60242188 -5.80492187 31.51734375 -4.99609375 31.4296875 C-2.56057445 30.93795532 -2.56057445 30.93795532 -0.9375 27.8125 C1.2265625 27.51953125 1.2265625 27.51953125 3.6875 27.625 C4.91339844 27.66560547 4.91339844 27.66560547 6.1640625 27.70703125 C6.79054688 27.74183594 7.41703125 27.77664062 8.0625 27.8125 C7.9783797 30.67259035 7.49431261 32.35898827 5.5078125 34.4453125 C-0.38217863 39.50435052 -3.89264118 40.16288189 -11.73046875 40.09375 C-17.13116172 39.62012041 -19.59767705 37.22675756 -23.1875 33.4375 C-27.30541601 27.26062598 -27.61285879 21.05150198 -26.9375 13.8125 C-25.18587223 8.18885295 -22.22832839 2.87981527 -17.109375 -0.3359375 C-11.89175969 -2.38169314 -5.20692196 -1.98358932 0 0 Z " fill="#18414D" transform="translate(309.9375,139.1875)"/>
<path d="M0 0 C3.03236795 0.67448932 4.35438833 1.93397127 6.08984375 4.46484375 C7.85572629 9.76249138 7.87141025 15.206979 5.71484375 20.40234375 C4.08984375 23.46484375 4.08984375 23.46484375 2.08984375 25.46484375 C-0.94720193 25.96906369 -3.86818219 25.91951603 -6.91015625 25.46484375 C-9.41176443 23.58863762 -10.52961277 22.22593072 -11.91015625 19.46484375 C-13.10392205 7.11789463 -13.10392205 7.11789463 -9.97265625 2.65234375 C-6.3767808 0.08386129 -4.33059444 -0.29543157 0 0 Z " fill="#F9F9FA" transform="translate(263.91015625,145.53515625)"/>
<path d="M0 0 C0.33 0 0.66 0 1 0 C1.3403125 1.7634375 1.3403125 1.7634375 1.6875 3.5625 C3.0983444 9.16613549 5.77838758 13.30455894 10.375 16.8125 C13.51380366 18.23243499 16.66536736 19.1499956 20 20 C20 20.33 20 20.66 20 21 C18.7625 21.268125 17.525 21.53625 16.25 21.8125 C12.86074962 22.64484241 10.68944114 23.72431903 8 26 C7.34 26 6.68 26 6 26 C5.71125 26.5775 5.4225 27.155 5.125 27.75 C4.42896709 29.14206581 3.70481337 30.52091758 2.9375 31.875 C1.7614358 34.54074552 1.39213842 37.12431827 1 40 C-0.69699865 37.45450203 -1.39546018 35.94059914 -2.25 33.125 C-4.28223918 27.48449941 -8.10192883 25.26538078 -13 22 C-15.32387947 21.60612212 -17.65793749 21.26513915 -20 21 C-17.76863176 18.76863176 -16.73321978 18.56845195 -13.75 17.8125 C-8.58900044 16.14471718 -5.76108655 13.6460591 -3 9 C-1.76209758 6.05060371 -0.80015026 3.0953181 0 0 Z " fill="#0F695A" transform="translate(384,129)"/>
<path d="M0 0 C1.08667969 0.01804688 2.17335938 0.03609375 3.29296875 0.0546875 C4.54013672 0.08949219 4.54013672 0.08949219 5.8125 0.125 C4.91414835 7.91071429 4.91414835 7.91071429 2.8125 11.125 C-0.37772594 12.72011297 -3.71658396 12.50042561 -7.1875 12.125 C-9.25 11.0625 -9.25 11.0625 -10.1875 9.125 C-10.0625 5.5625 -10.0625 5.5625 -9.1875 2.125 C-5.66070901 -0.22619399 -4.15870515 -0.08943452 0 0 Z " fill="#F6F7F7" transform="translate(342.1875,159.875)"/>
<path d="M0 0 C2.9375 2.1875 2.9375 2.1875 5 5 C5 6.65 5 8.3 5 10 C-0.61 10 -6.22 10 -12 10 C-11 3 -11 3 -9.375 1.0625 C-5.97380129 -0.4590889 -3.68717269 -0.51749792 0 0 Z " fill="#EBEEEF" transform="translate(305,145)"/>
<path d="M0 0 C0 1.32 0 2.64 0 4 C-2.97 3.67 -5.94 3.34 -9 3 C-6.31795079 0.31795079 -3.73391546 0 0 0 Z " fill="#267465" transform="translate(373,147)"/>
<path d="M0 0 C0.33 0 0.66 0 1 0 C1.6875 3.3125 1.6875 3.3125 2 7 C0.5625 8.9375 0.5625 8.9375 -1 10 C-1.66 9.67 -2.32 9.34 -3 9 C-2.01 6.03 -1.02 3.06 0 0 Z " fill="#217364" transform="translate(384,129)"/>
</svg>
