<svg width="160" height="42" viewBox="0 0 160 42" fill="none" xmlns="http://www.w3.org/2000/svg">
<path d="M31.9813 6.44011H7.52328C8.55541 6.44011 9.41633 6.76724 10.106 7.42639C10.7958 8.04647 11.1382 8.75933 11.1382 9.57472V16.6496H31.1204V23.1483H7.52328C8.06136 23.1483 8.53584 23.2459 8.95652 23.4363C9.41633 23.5926 9.79787 23.822 10.106 24.1345C10.4485 24.4421 10.6979 24.7937 10.8545 25.1794C11.0452 25.5261 11.1431 25.8971 11.1431 26.2829V35.1594H31.9862V41.5995H3.61489V3.13461C3.61489 2.6317 3.46325 2.14833 3.15508 1.68449C2.84691 1.18158 2.40667 0.776328 1.83435 0.463844C1.30117 0.156242 0.689716 0 0 0H31.9813V6.44011Z" fill="#18444F"/>
<path d="M62.0485 33.4702C62.0485 36.9466 62.0827 39.5734 62.1561 41.3507H55.2198V37.9963C53.7279 40.6573 50.9348 41.9903 46.8454 41.9903C43.255 41.9903 40.3934 40.6573 38.2557 37.9963C36.123 35.3353 35.0566 31.8004 35.0566 27.4012C35.0566 23.002 36.2111 19.3449 38.5248 16.5374C40.8385 13.6958 43.9642 12.2799 47.9118 12.2799C49.9026 12.2799 51.5022 12.5826 52.7104 13.1831C53.9529 13.7886 54.7894 14.4965 55.2149 15.3119V5.78604C55.2149 5.28801 54.9997 4.8437 54.5741 4.4531C54.1486 4.06249 53.6154 3.86719 52.9746 3.86719H62.0436V33.4702H62.0485ZM48.714 36.3997C49.8537 36.3997 50.832 36.224 51.6489 35.8675C52.505 35.5111 53.1605 35.0521 53.6252 34.4809C54.085 33.9145 54.4616 33.2017 54.7453 32.3521C55.029 31.5025 55.2247 30.6676 55.3323 29.8473C55.4399 28.9978 55.4937 28.0359 55.4937 26.9715C55.4937 25.5165 55.4057 24.291 55.2247 23.2998C55.0829 22.2696 54.7796 21.3321 54.3198 20.4777C53.8942 19.5891 53.2338 18.9348 52.3484 18.51C51.4582 18.0852 50.338 17.8704 48.9879 17.8704C47.5302 17.8704 46.2829 18.2415 45.2556 18.9885C44.2235 19.7355 43.4408 20.7999 42.9077 22.1817C42.4087 23.5683 42.1592 25.2333 42.1592 27.1863C42.1592 30.1696 42.7267 32.4595 43.8664 34.0561C45.0404 35.6185 46.6595 36.3997 48.7189 36.3997H48.714Z" fill="#18444F"/>
<path d="M91.6097 26.1751C91.6097 27.2395 91.5754 28.0402 91.502 28.5724H72.2976C72.2976 30.8428 72.8504 32.7421 73.951 34.2704C75.0907 35.7986 76.6707 36.5603 78.7007 36.5603C80.3736 36.5603 81.5966 36.2576 82.3792 35.657C83.1619 35.0516 83.8027 34.1825 84.2967 33.0497H91.1792C90.8955 34.08 90.4699 35.0565 89.8976 35.9793C89.3644 36.9021 88.616 37.8591 87.6572 38.8551C86.7327 39.8121 85.4707 40.5787 83.8711 41.145C82.3058 41.7114 80.5106 41.9946 78.4855 41.9946C76.2794 41.9946 74.3081 41.604 72.5667 40.8228C70.8595 40.0074 69.4898 38.9039 68.4577 37.5222C67.4256 36.1355 66.6429 34.6122 66.1097 32.9423C65.6108 31.2383 65.3613 29.4269 65.3613 27.5129C65.3613 22.9672 66.5158 19.2955 68.8295 16.493C71.1432 13.6904 74.4646 12.2891 78.8034 12.2891C81.078 12.2891 83.0689 12.6992 84.7761 13.5146C86.5175 14.2958 87.8529 15.3797 88.7774 16.7615C89.7362 18.1091 90.4503 19.5836 90.9102 21.1802C91.3749 22.7426 91.6048 24.4125 91.6048 26.1849L91.6097 26.1751ZM72.4639 24.2074H84.6783C84.644 22.147 84.1451 20.4967 83.1863 19.2565C82.2276 17.9773 80.7503 17.3376 78.7594 17.3376C74.988 17.3376 72.8944 19.6276 72.4639 24.2074Z" fill="#18444F"/>
<path d="M107.336 23.6752C109.576 24.2074 111.425 24.8128 112.883 25.4866C114.341 26.1263 115.427 26.8733 116.136 27.7229C116.884 28.5382 117.378 29.3536 117.628 30.1739C117.877 30.9942 118 31.9853 118 33.1572C118 35.7107 116.987 37.8249 114.962 39.4947C112.971 41.1646 110.036 41.9995 106.162 41.9995C102.288 41.9995 99.3333 41.1841 97.3082 39.5484C95.2831 37.8786 94.0895 35.6814 93.7324 32.9472H100.507C101.217 35.6082 103.193 36.9411 106.426 36.9411C109.483 36.9411 111.014 35.8426 111.014 33.6405C111.014 32.6103 110.604 31.8144 109.787 31.2432C109.004 30.6768 107.492 30.1056 105.252 29.5392C103.085 29.007 101.29 28.4406 99.8665 27.8352C98.443 27.2297 97.362 26.5559 96.6136 25.8138C95.9043 25.0326 95.4249 24.2514 95.1754 23.4701C94.926 22.6889 94.8037 21.7661 94.8037 20.7017C94.8037 19.6373 94.9993 18.5729 95.3907 17.6159C95.782 16.659 96.4032 15.7703 97.2593 14.9549C98.1104 14.1396 99.2697 13.4999 100.727 13.0361C102.219 12.5381 103.946 12.2891 105.903 12.2891C107.859 12.2891 109.581 12.5576 111.078 13.0898C112.57 13.5878 113.744 14.2616 114.6 15.1112C115.456 15.9266 116.092 16.8152 116.522 17.7722C116.982 18.695 117.251 19.6715 117.325 20.7017H110.765C110.232 18.3923 108.505 17.24 105.59 17.24C104.631 17.24 103.829 17.3816 103.188 17.6648C102.581 17.948 102.156 18.3044 101.906 18.7292C101.691 19.1198 101.588 19.5787 101.588 20.1158C101.588 20.9654 101.96 21.6441 102.709 22.1372C103.491 22.6352 105.037 23.1479 107.351 23.6801L107.336 23.6752Z" fill="#18444F"/>
<path d="M139 6.25H139.001C139.002 6.25053 139.004 6.25253 139.007 6.25488L139.014 6.26758C139.282 14.2739 145.727 20.7183 153.733 20.9863H153.745V20.9873H153.746C153.747 20.9883 153.75 20.9922 153.75 21C153.75 21.0024 153.749 21.0034 153.749 21.0039C153.749 21.0047 153.749 21.0063 153.747 21.0078L153.732 21.0137C145.726 21.2822 139.282 27.727 139.014 35.7334V35.7422L139.011 35.7451C139.008 35.7481 139.004 35.75 139 35.75C138.998 35.75 138.997 35.7493 138.996 35.749C138.995 35.7487 138.994 35.7485 138.992 35.7471L138.986 35.7324C138.718 27.7261 132.273 21.2817 124.267 21.0137H124.258L124.255 21.0107C124.252 21.0078 124.25 21.0043 124.25 21C124.25 20.9976 124.251 20.9966 124.251 20.9961C124.251 20.9953 124.251 20.9937 124.253 20.9922C124.256 20.9889 124.262 20.9866 124.268 20.9863L124.267 20.9854C132.273 20.7173 138.718 14.2733 138.986 6.2666V6.25781L138.989 6.25488C138.992 6.25194 138.996 6.25 139 6.25Z" fill="#0D6459" stroke="white" stroke-width="0.5"/>
</svg>
