<svg width="156" height="42" viewBox="0 0 156 42" fill="none" xmlns="http://www.w3.org/2000/svg">
<g clip-path="url(#clip0_9940_56119)">
<path d="M141.302 5.84302C141.356 5.84306 141.402 5.8755 141.423 5.9231L141.435 5.97485C141.692 13.6218 147.766 19.8003 155.379 20.2395L155.744 20.2561H155.748C155.818 20.2561 155.875 20.3121 155.875 20.3889C155.875 20.4417 155.843 20.4878 155.795 20.509L155.743 20.5217C148.082 20.7779 141.892 26.8405 141.452 34.4397L141.435 34.803V34.8069C141.435 34.8766 141.38 34.9348 141.302 34.9348C141.249 34.9348 141.202 34.9016 141.181 34.8538L141.168 34.802C140.912 27.1551 134.837 20.9772 127.224 20.5383L126.861 20.5217H126.857C126.787 20.5217 126.729 20.4656 126.729 20.3889C126.729 20.3182 126.787 20.2591 126.862 20.2561L126.861 20.2551C134.643 19.9953 140.908 13.7432 141.168 5.97485L141.044 5.96997L141.169 5.97485V5.96997C141.17 5.904 141.227 5.84302 141.302 5.84302Z" fill="#0D6459" stroke="white" stroke-width="0.25"/>
<path d="M31.9887 6.44172H7.52482C8.55743 6.44172 9.41976 6.77066 10.1118 7.42853C10.7984 8.04804 11.1444 8.76074 11.1444 9.5776V16.6553H31.1319V23.1518H7.52482C8.06309 23.1518 8.54095 23.2505 8.95838 23.4424C9.41976 23.5959 9.79875 23.8316 10.1063 24.1386C10.4524 24.4456 10.6995 24.7965 10.8533 25.1857C11.0456 25.5311 11.1389 25.9039 11.1389 26.2877V35.1636H31.9832V41.6053H3.6196V3.13588C3.6196 2.63151 3.46581 2.14907 3.15823 1.68307C2.85064 1.1787 2.41124 0.773006 1.84001 0.465997C1.30174 0.153505 0.686571 0 0 0H31.9887V6.44172Z" fill="#1B444F"/>
<path d="M61.7861 33.4805C61.7861 36.9617 61.8191 39.5878 61.8905 41.364H54.9534V38.0088C53.4594 40.6733 50.6692 42.0055 46.5772 42.0055C42.9851 42.0055 40.1234 40.6733 37.9868 38.0088C35.8502 35.3444 34.7847 31.8138 34.7847 27.4115C34.7847 23.0092 35.9381 19.3525 38.2505 16.5456C40.5629 13.7058 43.6936 12.2858 47.6428 12.2858C49.6366 12.2858 51.2349 12.5874 52.4433 13.1904C53.6901 13.7935 54.525 14.5062 54.9534 15.323V5.78929C54.9534 5.2904 54.7392 4.84634 54.3108 4.45709C53.8823 4.06785 53.3496 3.87048 52.7124 3.87048H61.7807V33.4805H61.7861ZM48.4502 36.408C49.5871 36.408 50.5648 36.2326 51.3832 35.8762C52.2346 35.5199 52.8937 35.0594 53.3551 34.4892C53.8164 33.919 54.1899 33.2118 54.4755 32.3566C54.7612 31.5068 54.9534 30.668 55.0632 29.8512C55.1676 29.0014 55.2225 28.042 55.2225 26.973C55.2225 25.5147 55.1346 24.2921 54.9534 23.2998C54.8106 22.2691 54.5085 21.3316 54.0471 20.4764C53.6187 19.5883 52.9596 18.9304 52.0753 18.5083C51.1855 18.0806 50.065 17.8668 48.7138 17.8668C47.2528 17.8668 46.0115 18.2396 44.9789 18.9852C43.9463 19.7308 43.1663 20.7944 42.6336 22.1814C42.1337 23.5684 41.8866 25.2351 41.8866 27.1868C41.8866 30.1691 42.4578 32.4607 43.5948 34.0561C44.7702 35.6186 46.385 36.397 48.4502 36.397V36.408Z" fill="#1B444F"/>
<path d="M92.1544 26.1836C92.1544 27.2471 92.1159 28.0475 92.0445 28.5793H72.837C72.837 30.849 73.3863 32.7514 74.4903 34.2754C75.6272 35.7995 77.2091 36.5671 79.2359 36.5671C80.9056 36.5671 82.1359 36.2655 82.9159 35.6625C83.6958 35.0594 84.3385 34.1877 84.8383 33.0529H91.7205C91.4349 34.0836 91.0064 35.0594 90.4407 35.9804C89.9079 36.9015 89.1609 37.8609 88.1997 38.8587C87.277 39.8181 86.0137 40.5801 84.4099 41.1503C82.8445 41.7204 81.0484 42 79.0216 42C76.8191 42 74.8418 41.6108 73.1007 40.8268C71.3925 40.0099 70.0248 38.908 68.9922 37.5265C67.9596 36.1394 67.1797 34.6153 66.6469 32.9487C66.1471 31.2437 65.8999 29.4346 65.8999 27.5158C65.8999 22.9709 67.0588 19.2978 69.3657 16.4908C71.6781 13.6839 75.0011 12.2859 79.3402 12.2859C81.6196 12.2859 83.608 12.6916 85.3161 13.5084C87.0573 14.2869 88.392 15.3724 89.3202 16.7595C90.2814 18.1081 90.99 19.5828 91.4568 21.1782C91.9182 22.7407 92.1489 24.4073 92.1489 26.1836H92.1544ZM73.0018 24.2154H85.2173C85.1788 22.1541 84.6845 20.5039 83.7233 19.2649C82.7621 17.9875 81.2846 17.3461 79.2963 17.3461C75.5284 17.3461 73.4302 19.6377 73.0018 24.2154Z" fill="#1B444F"/>
<path d="M111.884 12.2859C114.762 12.2859 117.058 13.2288 118.766 15.1093C120.474 16.9897 121.325 19.687 121.325 23.2067V41.3641H114.443V24.0016C114.443 19.9556 112.751 17.9327 109.373 17.9327C105.391 17.9327 103.398 20.5587 103.398 25.8162V41.3641H96.5154V20.1146C96.5154 17.7024 96.4989 15.9261 96.4605 14.7913C96.422 14.2924 96.1913 13.8703 95.7684 13.5139C95.3784 13.1576 94.8786 12.9821 94.2744 12.9821H103.343C103.343 15.0435 103.359 16.3538 103.398 16.9239C104.963 13.8374 107.792 12.2914 111.884 12.2914V12.2859Z" fill="#1B444F"/>
</g>
<defs>
<clipPath id="clip0_9940_56119">
<rect width="156" height="42" fill="white"/>
</clipPath>
</defs>
</svg>
