<svg width="150" height="42" viewBox="0 0 150 42" fill="none" xmlns="http://www.w3.org/2000/svg">
<g clip-path="url(#clip0_9940_56121)">
<path d="M135.308 5.71802C135.445 5.71802 135.561 5.83315 135.566 5.9702C135.824 13.6729 142.034 19.8734 149.748 20.131C149.89 20.131 150 20.2461 150 20.3887C150 20.5312 149.885 20.6409 149.748 20.6464C142.034 20.904 135.824 27.1045 135.566 34.8072C135.566 34.9442 135.451 35.0594 135.308 35.0594C135.165 35.0594 135.056 34.9442 135.05 34.8072C134.792 27.1045 128.583 20.904 120.869 20.6464C120.732 20.6464 120.616 20.5312 120.616 20.3887C120.616 20.2461 120.732 20.1365 120.869 20.131C128.583 19.8734 134.792 13.6729 135.05 5.9702C135.05 5.83315 135.165 5.71802 135.308 5.71802Z" fill="#0D6459"/>
<path fill-rule="evenodd" clip-rule="evenodd" d="M7.52169 6.44172H31.9754V0H0C0.686285 0 1.3012 0.153505 1.83924 0.465997C2.41572 0.773006 2.85495 1.18418 3.15691 1.68307C3.46437 2.14907 3.6181 2.63151 3.6181 3.13588V41.6053H31.9754V35.1636H11.1343V26.2877C11.1343 25.8984 11.041 25.5311 10.8488 25.1857C10.6951 24.7965 10.448 24.4511 10.1021 24.1386C9.79466 23.8316 9.41583 23.5959 8.95465 23.4424C8.5319 23.2505 8.05424 23.1518 7.52169 23.1518H31.1134V16.6553H11.1343V9.5776C11.1343 8.76622 10.7884 8.04804 10.1021 7.42853C9.41583 6.77066 8.55386 6.44172 7.5162 6.44172H7.52169ZM60.481 33.4805C60.481 36.9618 60.5194 39.5878 60.5853 41.3641H53.651V38.0089C52.1577 40.6733 49.3686 42.0055 45.2784 42.0055C41.6877 42.0055 38.8273 40.6733 36.6916 38.0089C34.5558 35.3445 33.4907 31.8139 33.4907 27.4116C33.4907 23.0093 34.6437 19.3526 36.9551 16.5456C39.2665 13.7058 42.396 12.2859 46.3435 12.2859C48.3364 12.2859 49.9341 12.5874 51.142 13.1904C52.3883 13.7935 53.2228 14.5062 53.651 15.3231V5.78932C53.651 5.29043 53.4369 4.84636 53.0087 4.45712C52.5804 4.06788 52.0479 3.87051 51.411 3.87051H60.4755V33.4805H60.481ZM47.1451 36.408C48.2815 36.408 49.2588 36.2326 50.0769 35.8763C50.9279 35.5199 51.5867 35.0594 52.0479 34.4892C52.5091 33.9191 52.8824 33.2119 53.1679 32.3566C53.4534 31.5069 53.6455 30.6681 53.7554 29.8512C53.8597 29.0014 53.9146 28.042 53.9146 26.973C53.9146 25.5147 53.8267 24.2921 53.6455 23.2998C53.5028 22.2692 53.2008 21.3317 52.7396 20.4764C52.3114 19.5883 51.6526 18.9304 50.7686 18.5083C49.8847 18.0861 48.7592 17.8669 47.4086 17.8669C45.9482 17.8669 44.7074 18.2397 43.6752 18.9853C42.643 19.7308 41.8634 20.7944 41.3308 22.1814C40.8312 23.5685 40.5842 25.2351 40.5842 27.1868C40.5842 30.1692 41.1552 32.4608 42.2916 34.0561C43.4666 35.6186 45.0807 36.3971 47.1451 36.3971V36.408ZM88.981 26.1835C88.981 27.2471 88.9426 28.0475 88.8767 28.5793H69.6772C69.6772 30.849 70.2262 32.7513 71.3297 34.2754C72.4662 35.7995 74.0474 36.567 76.0788 36.567C77.7479 36.567 78.9777 36.2655 79.7573 35.6624C80.5424 35.0594 81.1793 34.1877 81.6789 33.0529H88.5583C88.2728 34.0835 87.85 35.0594 87.279 35.9804C86.7465 36.9014 85.9998 37.8609 85.039 38.8586C84.1166 39.818 82.8539 40.5801 81.2507 41.1502C79.686 41.7204 77.8906 42 75.8647 42C73.6631 42 71.6866 41.6108 69.9462 40.8268C68.2387 40.0099 66.8716 38.908 65.8395 37.5264C64.8073 36.1394 64.0277 34.6153 63.4951 32.9487C62.9955 31.2437 62.7484 29.4345 62.7484 27.5157C62.7484 22.9709 63.9014 19.2977 66.2128 16.4908C68.5242 13.6839 71.8458 12.2859 76.1886 12.2859C78.4616 12.2859 80.4546 12.6916 82.1621 13.5084C83.9025 14.2869 85.2366 15.3724 86.1645 16.7594C87.1253 18.1081 87.8335 19.5828 88.2947 21.1782C88.7559 22.7406 88.9865 24.4073 88.9865 26.1835H88.981ZM69.8364 24.2154H82.0468C82.0083 22.154 81.5142 20.5039 80.5534 19.2648C79.5926 17.9875 78.1157 17.346 76.1283 17.346C72.3619 17.346 70.2591 19.6376 69.8364 24.2154ZM116.01 41.3586C115.763 40.2237 115.636 37.8992 115.636 34.3796V21.9183C115.636 15.5259 111.832 12.3133 104.222 12.2804C102.158 12.2804 100.362 12.5271 98.8361 13.026C97.3427 13.4865 96.1513 14.1444 95.2619 14.9941C94.3725 15.8439 93.6972 16.7868 93.236 17.8175C92.8077 18.8098 92.5442 19.9118 92.4344 21.1179H98.9953C99.2423 19.8734 99.6871 18.9359 100.329 18.2945C101.005 17.6202 102.213 17.2803 103.958 17.2803C105.88 17.2803 107.176 17.7079 107.851 18.5576C108.559 19.4074 108.916 20.4929 108.916 21.8086V23.7768H104.595C100.291 23.7768 96.9694 24.5553 94.6195 26.1177C92.2752 27.6802 91.1002 30.0211 91.1002 33.1461C91.1002 34.0671 91.2046 34.9552 91.4187 35.8105C91.6657 36.6273 92.0391 37.4278 92.5387 38.2062C93.0713 38.9518 93.6917 39.6097 94.4054 40.1744C95.1521 40.7062 96.0744 41.1502 97.178 41.5066C98.2815 41.8246 99.4894 41.9836 100.802 41.9836C104.782 41.9836 107.522 40.7391 109.015 38.2556C109.086 39.6755 109.229 40.7062 109.443 41.3421H116.004L116.01 41.3586ZM108.971 28.1023V28.9028C108.971 30.1089 108.883 31.1395 108.702 31.9893C108.559 32.8391 108.274 33.6778 107.851 34.4947C107.461 35.3116 106.819 35.9311 105.93 36.3587C105.079 36.7863 103.975 37.0001 102.624 37.0001C101.131 37.0001 99.9945 36.6109 99.2094 35.8269C98.4243 35.0101 98.0345 33.9794 98.0345 32.7404C98.0345 31.1779 98.6055 30.0266 99.742 29.281C100.917 28.5025 102.762 28.1078 105.287 28.1078H108.966L108.971 28.1023Z" fill="#1B444F"/>
</g>
<defs>
<clipPath id="clip0_9940_56121">
<rect width="150" height="42" fill="white"/>
</clipPath>
</defs>
</svg>
