<svg width="265" height="42" viewBox="0 0 265 42" fill="none" xmlns="http://www.w3.org/2000/svg">
<g clip-path="url(#clip0_13011_3652)">
<path d="M78.6924 17.3889C77.1233 7.90993 68.5042 0.214944 58.9394 0.0429887C53.5444 -0.0429887 48.1709 0.0429887 42.7759 0C42.346 0 42.088 0.171955 41.8086 0.472876C36.3706 6.77073 30.9112 13.0686 25.4732 19.3664C25.3657 19.087 25.3012 18.8506 25.2152 18.6356C24.4629 16.7441 22.7434 15.6479 20.6155 15.7339C18.81 15.8199 17.1765 17.131 16.6391 18.9795C15.7579 21.9028 17.9503 24.7615 21.1314 24.783C26.6553 24.783 32.1578 24.783 37.6818 24.783C38.3911 24.783 38.563 24.9765 38.4556 25.6643C37.9827 28.609 37.5313 31.5537 37.1229 34.52C37.037 35.1003 36.908 35.2938 36.3062 35.2938C31.0831 35.2723 25.8601 35.3152 20.6155 35.2723C12.3403 35.1863 5.99957 28.1146 6.73037 19.8823C7.37519 12.7247 13.329 7.15762 20.4865 7.07165C22.7864 7.02866 25.0648 7.07165 27.3646 7.07165C27.6656 7.07165 27.988 7.15763 28.2459 6.83521C30.0514 4.72876 31.8784 2.64381 33.7699 0.472876C33.5334 0.451382 33.426 0.429887 33.3185 0.429887C29.0842 0.429887 24.8283 0.429887 20.594 0.429887C19.1324 0.429887 17.6923 0.601842 16.2737 0.902763C5.69865 3.18117 -1.54483 13.5415 0.282159 24.6755C1.82973 34.0686 10.3629 41.7206 19.8632 41.871C25.2152 41.957 30.5458 41.871 35.8978 41.914C36.1342 41.914 36.3062 41.871 36.4566 41.7851C36.4566 41.8495 36.4566 41.9355 36.4351 42C42.131 35.4657 47.6765 29.1034 53.2649 22.6766C53.3724 22.999 53.4584 23.2569 53.5444 23.4933C54.2967 25.4063 56.0377 26.5026 58.1871 26.4166C60.0141 26.3306 61.6476 24.998 62.2065 23.1279C63.0877 20.1832 60.8738 17.303 57.6927 17.2815C52.1258 17.2815 46.5588 17.2815 40.9919 17.2815C40.2825 17.2815 40.0891 17.088 40.2181 16.4002C40.6909 13.434 41.1423 10.4463 41.5507 7.48004C41.6367 6.89969 41.7656 6.70624 42.389 6.70624C47.655 6.72774 52.9425 6.68475 58.2086 6.72774C66.5483 6.81372 72.9535 13.9498 72.2012 22.2467C71.5564 29.4688 65.5595 35.0573 58.316 35.1648C55.9947 35.2078 53.6948 35.1648 51.3735 35.1648C51.0726 35.1648 50.7501 35.0788 50.4922 35.4012C48.6652 37.5292 46.8382 39.6356 44.9253 41.828C45.1832 41.8495 45.2907 41.871 45.3981 41.871C49.6754 41.871 53.9528 41.871 58.2301 41.871C59.6917 41.871 61.1533 41.6991 62.5719 41.3982C73.2544 39.0553 80.5624 28.609 78.7139 17.3889H78.6924Z" fill="#FF0012"/>
<path d="M95 19.3649C95 14.4168 98.8587 10.5874 103.746 10.5874C107.391 10.5874 110.456 12.6957 111.678 15.7721L110.156 16.396C109.042 13.7499 106.726 12.1149 103.746 12.1149C99.7377 12.1149 96.6721 15.3419 96.6721 19.3649C96.6721 23.3879 99.7591 26.5719 103.811 26.5719C106.898 26.5719 109.17 24.7648 110.221 22.1401L111.764 22.807C110.456 25.905 107.605 28.0993 103.768 28.0993C98.8159 28.0993 95 24.1839 95 19.3649Z" fill="black"/>
<path d="M114.979 19.3649C114.979 14.5244 118.709 10.5874 123.639 10.5874C126.383 10.5874 129.342 12.1149 130.649 14.804V10.9316H132.257V27.7551H130.649V23.9042C129.342 26.6149 126.383 28.0993 123.639 28.0993C118.709 28.0993 114.979 24.1624 114.979 19.3649ZM130.821 19.3649C130.821 15.3634 127.691 12.1149 123.682 12.1149C119.673 12.1149 116.629 15.3419 116.629 19.3649C116.629 23.3879 119.759 26.5719 123.682 26.5719C127.605 26.5719 130.821 23.3879 130.821 19.3649Z" fill="black"/>
<path d="M135.73 24.9799L137.017 23.9472C138.131 25.4747 140.061 26.6579 142.355 26.6579C145.399 26.6579 146.899 24.9799 146.899 23.1297C146.899 20.9354 144.456 20.3975 142.033 19.7952C139.289 19.1067 136.524 18.3107 136.524 15.1913C136.524 12.7387 138.753 10.5874 142.29 10.5874C144.691 10.5874 146.792 11.5125 148.143 13.0399L146.921 14.0511C145.785 12.7603 144.348 12.0288 142.312 12.0288C139.675 12.0288 138.196 13.3411 138.196 15.1698C138.196 17.2351 140.511 17.8159 142.912 18.4183C145.699 19.1067 148.55 19.9673 148.55 23.1297C148.55 25.5177 146.599 28.1424 142.333 28.1424C139.461 28.1424 137.081 26.8516 135.752 25.0014L135.73 24.9799Z" fill="black"/>
<path d="M152.666 6.5H154.231V14.2233C155.367 12.072 157.661 10.6091 160.619 10.6091C165.078 10.6091 168.058 13.5349 168.058 18.3324V27.7553H166.407V18.2894C166.407 14.546 164.199 12.072 160.426 12.072C156.911 12.072 154.231 14.7827 154.231 18.3109V27.7338H152.666V6.5Z" fill="black"/>
<path d="M175.39 25.7759V35.4999H171.553V10.9531H175.39V13.1905C176.569 11.62 178.541 10.6089 180.835 10.6089C185.037 10.6089 189.089 13.7929 189.089 19.3864C189.089 24.9799 184.908 28.1208 180.857 28.1208C178.563 28.1208 176.569 27.2818 175.39 25.7974V25.7759ZM185.273 19.3218C185.273 16.4175 183.065 14.1371 180.235 14.1371C177.405 14.1371 175.24 16.439 175.24 19.3218C175.24 22.2046 177.341 24.5496 180.235 24.5496C183.129 24.5496 185.273 22.2477 185.273 19.3218Z" fill="black"/>
<path d="M190.289 19.3649C190.289 14.4383 194.126 10.5874 198.971 10.5874C203.816 10.5874 207.653 14.4383 207.653 19.3649C207.653 24.2915 203.795 28.0993 198.971 28.0993C194.148 28.0993 190.289 24.1839 190.289 19.3649ZM203.838 19.3649C203.838 16.5251 201.715 14.2447 198.971 14.2447C196.227 14.2447 194.105 16.5251 194.105 19.3649C194.105 22.2047 196.206 24.4636 198.971 24.4636C201.737 24.4636 203.838 22.1616 203.838 19.3649Z" fill="black"/>
<path d="M207.439 10.9534H211.384L215.071 22.5491L219.273 10.9534H223.11L227.226 22.5706L231.063 10.9534H234.986L229.113 27.7769H225.382L221.138 16.1381L216.786 27.7769H212.97L207.375 10.9534H207.439Z" fill="black"/>
<path d="M234.857 19.4079C234.857 14.4813 238.673 10.6089 243.561 10.6089C248.449 10.6089 252.179 14.2877 252.179 19.2573V20.7202H238.545C239.081 23.1082 240.946 24.6787 243.711 24.6787C245.898 24.6787 247.548 23.5385 248.342 21.7098L251.514 23.56C250.057 26.2922 247.484 28.0993 243.69 28.0993C238.416 28.0993 234.836 24.2484 234.836 19.3864L234.857 19.4079ZM238.759 17.4717H248.277C247.698 15.1912 245.983 14.0295 243.582 14.0295C241.181 14.0295 239.466 15.4064 238.759 17.4717Z" fill="black"/>
<path d="M253.916 10.9534H257.753V13.449C258.525 11.7709 259.961 10.9534 262.041 10.9534C263.263 10.9534 264.227 11.2331 264.999 11.6633L263.541 15.3421C262.963 14.9764 262.341 14.6752 261.226 14.6752C258.954 14.6752 257.796 15.88 257.796 18.7843V27.7554H253.937V10.9319L253.916 10.9534Z" fill="black"/>
</g>
<defs>
<clipPath id="clip0_13011_3652">
<rect width="264.999" height="42" fill="white"/>
</clipPath>
</defs>
</svg>
