<svg width="199" height="52" viewBox="0 0 199 52" fill="none" xmlns="http://www.w3.org/2000/svg">
<path d="M31.6956 6.39632H7.45745C8.48307 6.39632 9.33485 6.72107 10.0186 7.37636C10.7023 7.99106 11.0442 8.70433 11.0442 9.5104V16.5446H30.8496V22.9989H7.45745C7.99054 22.9989 8.46568 23.0975 8.88288 23.2889C9.34064 23.4455 9.71728 23.6716 10.0186 23.979C10.3605 24.2863 10.6038 24.6343 10.7603 25.017C10.9515 25.3649 11.0442 25.7303 11.0442 26.113V34.9333H31.7014V41.3296H3.58676V3.11408C3.58676 2.61536 3.43611 2.13404 3.129 1.67012C2.82769 1.1714 2.38731 0.765471 1.81946 0.458123C1.29216 0.156574 0.683744 0 0 0H31.6956V6.39632Z" fill="#18444F"/>
<path d="M59.9737 33.2632C59.9737 36.7194 60.0084 39.329 60.078 41.0919H53.2057V37.7574C51.7282 40.4018 48.9584 41.724 44.9023 41.724C41.3445 41.724 38.5052 40.4018 36.3903 37.7574C34.2753 35.1131 33.2207 31.6047 33.2207 27.2264C33.2207 22.8481 34.368 19.2179 36.6568 16.4344C38.9456 13.6103 42.0514 12.2011 45.9627 12.2011C47.9386 12.2011 49.5205 12.5027 50.7199 13.1C51.9541 13.6973 52.7827 14.4047 53.2057 15.2166V5.74681C53.2057 5.25389 52.9971 4.81316 52.5741 4.42463C52.1512 4.03609 51.6239 3.84473 50.9865 3.84473H59.9737V33.2632ZM46.7565 36.1743C47.8864 36.1743 48.8541 36.0003 49.6653 35.6466C50.5113 35.2928 51.1661 34.8347 51.6239 34.2722C52.0816 33.7097 52.4525 33.0022 52.7364 32.1556C53.0203 31.3089 53.2115 30.4796 53.3158 29.6678C53.4201 28.8211 53.4723 27.8701 53.4723 26.8089C53.4723 25.3649 53.3854 24.1471 53.2057 23.1555C53.0667 22.1348 52.7654 21.1954 52.3076 20.3487C51.8846 19.4673 51.2298 18.812 50.3491 18.3887C49.4683 17.9653 48.3558 17.7566 47.0173 17.7566C45.5745 17.7566 44.3402 18.1277 43.3146 18.87C42.2948 19.6123 41.5183 20.6677 40.9911 22.0421C40.4985 23.4164 40.2494 25.075 40.2494 27.0176C40.2494 29.9809 40.8114 32.2541 41.9413 33.8431C43.106 35.3972 44.7111 36.1685 46.7507 36.1685L46.7565 36.1743Z" fill="#18444F"/>
<path d="M88.226 26.0144C88.226 27.0698 88.1913 27.8643 88.1217 28.3978H69.087C69.087 30.6536 69.6317 32.5441 70.7268 34.0576C71.8567 35.577 73.4212 36.3309 75.4319 36.3309C77.0891 36.3309 78.3059 36.0293 79.0824 35.432C79.8589 34.8347 80.4905 33.9706 80.983 32.8398H87.803C87.5191 33.8605 87.0961 34.8347 86.5341 35.751C86.0068 36.6672 85.2651 37.6182 84.3148 38.6099C83.3993 39.5609 82.1477 40.3206 80.56 40.8831C79.0071 41.4456 77.2282 41.7297 75.2175 41.7297C73.033 41.7297 71.0745 41.3412 69.3477 40.5641C67.6558 39.7523 66.2999 38.6621 65.2742 37.2819C64.2486 35.9017 63.478 34.3882 62.9507 32.7297C62.4581 31.0363 62.209 29.2386 62.209 27.3308C62.209 22.8133 63.3563 19.1657 65.6451 16.3764C67.9339 13.5871 71.2309 12.1953 75.5304 12.1953C77.7845 12.1953 79.7604 12.6012 81.4523 13.4131C83.1791 14.1902 84.5002 15.263 85.4157 16.6432C86.366 17.9827 87.0729 19.4499 87.5307 21.033C87.9885 22.5872 88.2202 24.2457 88.2202 26.0086L88.226 26.0144ZM69.2434 24.0543H81.348C81.3133 22.0073 80.8207 20.3661 79.8647 19.1309C78.9144 17.861 77.4484 17.2289 75.4783 17.2289C71.7408 17.2289 69.6606 19.5021 69.2376 24.0543H69.2434Z" fill="#18444F"/>
<path d="M90.33 3.84467H99.3172V41.0918H92.4971V5.74675C92.4971 5.4278 92.4102 5.13205 92.2306 4.8479C92.051 4.56375 91.7902 4.33758 91.4368 4.15781C91.1181 3.94905 90.7472 3.83887 90.3242 3.83887L90.33 3.84467Z" fill="#18444F"/>
<path d="M125.727 34.162C125.727 37.653 125.849 39.9668 126.098 41.0919H119.597C119.388 40.4598 119.244 39.4333 119.174 38.0242C117.691 40.4946 114.979 41.7297 111.033 41.7297C109.729 41.7297 108.53 41.5732 107.44 41.2542C106.345 40.9005 105.43 40.4598 104.688 39.932C103.981 39.3695 103.367 38.7143 102.839 37.972C102.347 37.1949 101.976 36.4004 101.727 35.5886C101.518 34.7419 101.408 33.8605 101.408 32.9442C101.408 29.8417 102.573 27.5105 104.896 25.9622C107.22 24.4081 110.517 23.6368 114.782 23.6368H119.064V21.6767C119.064 20.3719 118.71 19.2933 118.009 18.4467C117.337 17.6 116.051 17.1767 114.15 17.1767C112.423 17.1767 111.224 17.513 110.558 18.1799C109.92 18.812 109.486 19.7514 109.237 20.9866H102.735C102.839 19.7862 103.106 18.696 103.529 17.7044C103.987 16.6838 104.659 15.7443 105.54 14.8977C106.42 14.051 107.602 13.3957 109.08 12.9376C110.598 12.4447 112.377 12.1953 114.423 12.1953C121.967 12.2301 125.739 15.4254 125.739 21.7695V34.1504L125.727 34.162ZM119.116 28.7109V27.9165H115.471C112.968 27.9165 111.137 28.305 109.972 29.0821C108.842 29.8243 108.28 30.9668 108.28 32.5209C108.28 33.7561 108.669 34.7767 109.445 35.5886C110.222 36.3656 111.351 36.7542 112.829 36.7542C114.168 36.7542 115.263 36.5454 116.109 36.1221C116.989 35.6988 117.627 35.0841 118.015 34.2722C118.438 33.4603 118.722 32.6311 118.861 31.7844C119.035 30.9378 119.128 29.9171 119.128 28.7167L119.116 28.7109Z" fill="#18444F"/>
<path d="M145.788 12.207C149.033 12.207 151.71 13.4944 153.825 16.0692C155.94 18.6092 157 22.0132 157 26.2813C157 31.1119 155.835 34.9044 153.512 37.6589C151.188 40.3729 148.262 41.7357 144.733 41.7357C141.204 41.7357 138.672 40.5701 137.223 38.2446V51.9999H130.456V19.7226C130.456 17.8553 130.438 16.1968 130.403 14.747C130.403 14.2541 130.189 13.8308 129.766 13.477C129.343 13.0885 128.833 12.8971 128.23 12.8971H137.218V16.7071C138.91 13.709 141.766 12.207 145.782 12.207H145.788ZM143.302 36.2266C144.779 36.2266 146.031 35.8555 147.057 35.1132C148.076 34.3361 148.836 33.2285 149.328 31.7787C149.821 30.3348 150.07 28.5893 150.07 26.5422C150.07 23.7935 149.508 21.6362 148.378 20.0879C147.283 18.5338 145.718 17.7625 143.673 17.7625C141.274 17.7625 139.547 18.5222 138.492 20.0357C137.473 21.5551 136.957 23.8631 136.957 26.9655C136.957 30.068 137.432 32.347 138.382 33.8954C139.367 35.4495 141.007 36.2208 143.302 36.2208V36.2266Z" fill="#18444F"/>
<path d="M178 6.03711C178.104 6.03711 178.195 6.11465 178.22 6.21484L178.226 6.25977C178.49 14.1548 184.846 20.5103 192.741 20.7744H192.742C192.866 20.7744 192.963 20.8739 192.963 21C192.963 21.1242 192.862 21.2207 192.74 21.2256C184.845 21.49 178.49 27.8461 178.226 35.7412V35.7422C178.226 35.8611 178.126 35.9629 178 35.9629C177.891 35.9629 177.804 35.8856 177.78 35.7852L177.774 35.7402C177.51 27.8452 171.154 21.4897 163.259 21.2256H163.258C163.139 21.2256 163.037 21.1255 163.037 21C163.037 20.8759 163.138 20.7786 163.259 20.7734C171.154 20.5093 177.51 14.1541 177.774 6.25879V6.25781C177.774 6.13893 177.874 6.03711 178 6.03711Z" fill="#0D6459" stroke="white" stroke-width="0.075"/>
</svg>
