<svg width="164" height="164" viewBox="0 0 164 164" fill="none" xmlns="http://www.w3.org/2000/svg">
<g clip-path="url(#clip0_7391_80398)">
<path fill-rule="evenodd" clip-rule="evenodd" d="M28.617 71.254H46.8783V66.5H23C23.5125 66.5 23.9717 66.6133 24.3735 66.8439C24.804 67.0705 25.132 67.3739 25.3575 67.7421C25.5871 68.086 25.7019 68.4421 25.7019 68.8143V97.2046H46.8783V92.4507H31.3148V85.9003C31.3148 85.613 31.2451 85.3419 31.1016 85.0871C30.9868 84.7998 30.8023 84.5449 30.544 84.3143C30.3144 84.0877 30.0315 83.9137 29.6871 83.8004C29.3714 83.6589 29.0147 83.586 28.617 83.586H46.2346V78.7916H31.3148V73.5683C31.3148 72.9695 31.0565 72.4394 30.544 71.9822C30.0315 71.4967 29.3878 71.254 28.6129 71.254H28.617ZM68.1655 91.2086C68.1655 93.7777 68.1942 95.7157 68.2434 97.0266H63.0652V94.5505C61.9499 96.5169 59.8672 97.5 56.8127 97.5C54.1312 97.5 51.9951 96.5169 50.4003 94.5505C48.8054 92.5842 48.01 89.9786 48.01 86.7297C48.01 83.4808 48.871 80.7821 50.5971 78.7107C52.3232 76.6149 54.6601 75.567 57.6081 75.567C59.0964 75.567 60.2895 75.7894 61.1914 76.2345C62.1222 76.6796 62.7454 77.2056 63.0652 77.8084V70.7725C63.0652 70.4043 62.9053 70.0766 62.5855 69.7894C62.2657 69.5021 61.8679 69.3564 61.3923 69.3564H68.1614V91.2086H68.1655ZM58.2066 93.3691C59.0554 93.3691 59.7852 93.2396 60.3961 92.9767C61.0316 92.7137 61.5236 92.3738 61.8679 91.953C62.2124 91.5322 62.4912 91.0103 62.7044 90.3792C62.9175 89.752 63.0611 89.133 63.1431 88.5301C63.221 87.903 63.262 87.195 63.262 86.4061C63.262 85.3298 63.1963 84.4276 63.0611 83.6953C62.9544 82.9346 62.729 82.2428 62.3846 81.6116C62.0647 80.9561 61.5728 80.4707 60.9127 80.1591C60.2525 79.8476 59.412 79.6857 58.4034 79.6857C57.3128 79.6857 56.3862 79.9609 55.6155 80.5111C54.8447 81.0614 54.2625 81.8463 53.8648 82.8698C53.4916 83.8935 53.3072 85.1235 53.3072 86.5638C53.3072 88.7648 53.7336 90.456 54.5823 91.6334C55.4596 92.7864 56.6651 93.361 58.2066 93.361V93.3691ZM89.4486 85.8234C89.4486 86.6083 89.42 87.1991 89.3707 87.5915H75.0331C75.0331 89.2665 75.443 90.6705 76.2671 91.7952C77.1158 92.92 78.2967 93.4865 79.8136 93.4865C81.06 93.4865 81.9784 93.2639 82.5607 92.8189C83.1469 92.3738 83.6226 91.7305 83.9956 90.8929H89.133C88.9197 91.6536 88.604 92.3738 88.1776 93.0535C87.7799 93.7332 87.2223 94.4413 86.5048 95.1777C85.816 95.8856 84.873 96.4481 83.6758 96.8689C82.5073 97.2896 81.1666 97.4959 79.6537 97.4959C78.0097 97.4959 76.5336 97.2087 75.234 96.6302C73.9588 96.0273 72.938 95.214 72.1672 94.1944C71.3964 93.1708 70.8141 92.0461 70.4164 90.8161C70.0433 89.5578 69.8588 88.2227 69.8588 86.8065C69.8588 83.4525 70.7199 80.7417 72.446 78.6702C74.172 76.5987 76.6525 75.567 79.8956 75.567C81.593 75.567 83.0813 75.8664 84.3564 76.4692C85.6561 77.0437 86.6524 77.8448 87.3453 78.8684C88.0628 79.8637 88.5917 80.9521 88.9362 82.1295C89.2805 83.2826 89.4528 84.5125 89.4528 85.8234H89.4486ZM75.152 84.3709H84.2703C84.2416 82.8496 83.8726 81.6318 83.1551 80.7174C82.4376 79.7747 81.3347 79.3014 79.8505 79.3014C77.038 79.3014 75.4677 80.9926 75.152 84.3709ZM109.633 97.0226C109.448 96.1851 109.354 94.4696 109.354 91.8721V82.6757C109.354 77.9581 106.513 75.5872 100.83 75.5629C99.2885 75.5629 97.9479 75.7449 96.8081 76.1132C95.6929 76.453 94.8032 76.9385 94.139 77.5657C93.4748 78.1928 92.9706 78.8887 92.6261 79.6493C92.3063 80.3817 92.1095 81.1949 92.0275 82.085H96.927C97.1115 81.1665 97.4437 80.4747 97.9233 80.0013C98.4274 79.5037 99.3296 79.2528 100.634 79.2528C102.068 79.2528 103.036 79.5684 103.54 80.1955C104.069 80.8227 104.336 81.6237 104.336 82.5948V84.0473H101.109C97.8949 84.0473 95.4141 84.6218 93.6593 85.7748C91.9086 86.928 91.0313 88.6556 91.0313 90.9617C91.0313 91.6414 91.1092 92.2969 91.2691 92.9281C91.4535 93.5309 91.7323 94.1217 92.1054 94.6962C92.5031 95.2464 92.9665 95.7319 93.4994 96.1486C94.0571 96.5411 94.7458 96.8689 95.5699 97.1318C96.3941 97.3665 97.296 97.4838 98.2758 97.4838C101.248 97.4838 103.295 96.5653 104.41 94.7326C104.463 95.7805 104.569 96.5411 104.729 97.0104H109.628L109.633 97.0226ZM104.377 87.2395V87.8302C104.377 88.7203 104.311 89.481 104.176 90.108C104.069 90.7352 103.856 91.3542 103.54 91.9571C103.249 92.5599 102.769 93.0171 102.106 93.3327C101.47 93.6482 100.645 93.8061 99.6373 93.8061C98.5222 93.8061 97.6732 93.5188 97.0869 92.9402C96.5006 92.3374 96.2095 91.5767 96.2095 90.6624C96.2095 89.5092 96.636 88.6596 97.4846 88.1094C98.3617 87.5348 99.7396 87.2435 101.625 87.2435H104.373L104.377 87.2395Z" fill="#18444F"/>
<path d="M125.316 70.9561C125.394 70.9561 125.462 71.0133 125.481 71.0872L125.485 71.1204C125.682 76.9477 130.429 81.6386 136.326 81.8336H136.326C136.419 81.8336 136.491 81.907 136.491 82.0001C136.491 82.0918 136.416 82.163 136.325 82.1666C130.429 82.3618 125.682 87.0532 125.485 92.8805C125.485 92.9683 125.411 93.0441 125.316 93.0441C125.235 93.0441 125.17 92.9871 125.152 92.913L125.148 92.8798C124.951 87.0525 120.204 82.3615 114.307 82.1666C114.219 82.1666 114.142 82.0927 114.142 82.0001C114.142 81.9085 114.217 81.8367 114.307 81.8328C120.204 81.6379 124.951 76.9472 125.148 71.1197C125.148 71.0319 125.222 70.9561 125.316 70.9561Z" fill="#0D6459" stroke="white" stroke-width="0.075"/>
</g>
<defs>
<clipPath id="clip0_7391_80398">
<rect width="118" height="31" fill="white" transform="translate(23 66.5)"/>
</clipPath>
</defs>
</svg>
