<svg width="164" height="164" viewBox="0 0 164 164" fill="none" xmlns="http://www.w3.org/2000/svg">
<g clip-path="url(#clip0_7391_80411)">
<path d="M46.0952 71.6006H28.4328C29.1783 71.6006 29.8009 71.8355 30.3005 72.3054C30.7963 72.7478 31.0461 73.2568 31.0461 73.8402V78.8951H45.4766V83.5348H28.4328C28.8214 83.5348 29.1664 83.6053 29.4678 83.7424C29.8009 83.8519 30.0745 84.0204 30.2966 84.2396C30.5464 84.4589 30.7249 84.7094 30.8359 84.9874C30.9747 85.2341 31.0421 85.5004 31.0421 85.7744V92.1135H46.0912V96.7141H25.6133V69.2396C25.6133 68.8794 25.5022 68.5348 25.2802 68.202C25.0581 67.8418 24.7409 67.5521 24.3284 67.3328C23.9398 67.1096 23.4957 67 23 67H46.0952V71.6006Z" fill="#18444F"/>
<path d="M67.6088 90.9118C67.6088 93.3981 67.6325 95.2736 67.6841 96.5422H62.6757V94.1459C61.597 96.0488 59.5826 97.0003 56.6282 97.0003C54.0348 97.0003 51.9687 96.0488 50.4262 94.1459C48.8836 92.2431 48.1143 89.7216 48.1143 86.5774C48.1143 83.4333 48.947 80.8218 50.6165 78.8171C52.286 76.7889 54.5463 75.7748 57.3975 75.7748C58.8371 75.7748 59.991 75.9901 60.8634 76.4208C61.7636 76.8516 62.3663 77.3606 62.6757 77.9439V71.135C62.6757 70.7787 62.521 70.4616 62.2117 70.1836C61.9024 69.9056 61.5178 69.7646 61.0577 69.7646H67.6048V90.9118H67.6088ZM57.9805 93.0026C58.8014 93.0026 59.5072 92.8773 60.0981 92.6228C60.7127 92.3683 61.1886 92.0395 61.5217 91.6323C61.8548 91.2251 62.1245 90.72 62.3307 90.1091C62.5369 89.5023 62.6757 88.9032 62.7549 88.3198C62.8303 87.7129 62.87 87.0277 62.87 86.2642C62.87 85.2227 62.8066 84.3496 62.6757 83.6409C62.5726 82.9048 62.3545 82.2353 62.0213 81.6244C61.7121 80.9901 61.2361 80.5203 60.5977 80.2188C59.9553 79.9134 59.1463 79.7607 58.1708 79.7607C57.116 79.7607 56.2198 80.027 55.4743 80.5594C54.7288 81.0919 54.1656 81.8516 53.781 82.8421C53.4201 83.8328 53.2417 85.0231 53.2417 86.4169C53.2417 88.5469 53.6541 90.1836 54.475 91.3229C55.3236 92.4388 56.4894 92.9948 57.9805 92.9948V93.0026Z" fill="#18444F"/>
<path d="M89.5338 85.7C89.5338 86.4596 89.506 87.0312 89.4545 87.4111H75.587C75.587 89.032 75.9836 90.3906 76.7806 91.4791C77.6015 92.5676 78.7436 93.1158 80.2068 93.1158C81.4124 93.1158 82.3006 92.9004 82.8638 92.4698C83.4269 92.0391 83.8908 91.4165 84.2517 90.606H89.2205C89.0143 91.3421 88.705 92.0391 88.2966 92.6968C87.9119 93.3546 87.3725 94.0398 86.6786 94.7524C86.0124 95.4376 85.1004 95.9818 83.9424 96.3891C82.8122 96.7963 81.5155 96.996 80.0522 96.996C78.462 96.996 77.0344 96.718 75.7773 96.1581C74.5441 95.5747 73.5567 94.7877 72.8112 93.801C72.0656 92.8104 71.5026 91.7219 71.1179 90.5316C70.7571 89.3139 70.5786 88.0218 70.5786 86.6514C70.5786 83.4056 71.4153 80.7822 73.0808 78.7776C74.7503 76.7728 77.1495 75.7744 80.2822 75.7744C81.9279 75.7744 83.3634 76.0641 84.5967 76.6476C85.8537 77.2036 86.8174 77.9788 87.4876 78.9694C88.1815 79.9326 88.6931 80.9858 89.0302 82.1252C89.3633 83.2411 89.5298 84.4314 89.5298 85.7H89.5338ZM75.706 84.2943H84.5253C84.4975 82.8221 84.1406 81.6436 83.4467 80.7587C82.7527 79.8464 81.686 79.3883 80.2505 79.3883C77.5301 79.3883 76.0153 81.025 75.706 84.2943Z" fill="#18444F"/>
<path d="M103.778 75.7744C105.856 75.7744 107.513 76.4478 108.747 77.7908C109.98 79.1338 110.595 81.0602 110.595 83.5739V96.5418H105.626V84.1416C105.626 81.2521 104.405 79.8073 101.966 79.8073C99.091 79.8073 97.6511 81.6828 97.6511 85.4376V96.5418H92.6824V81.3656C92.6824 79.6428 92.6705 78.3743 92.6427 77.5638C92.615 77.2074 92.4484 76.906 92.143 76.6515C91.8615 76.397 91.5006 76.2716 91.0645 76.2716H97.6113C97.6113 77.7438 97.6236 78.6796 97.6511 79.0868C98.7811 76.8825 100.823 75.7783 103.778 75.7783V75.7744Z" fill="#18444F"/>
<path d="M125.797 71.3125C125.873 71.3125 125.939 71.3679 125.956 71.4395L125.96 71.4715C126.152 77.1108 130.753 81.6505 136.469 81.8391H136.47C136.559 81.8391 136.629 81.9102 136.629 82.0003C136.629 82.089 136.556 82.1579 136.468 82.1614C130.753 82.3503 126.151 86.8903 125.96 92.5297C125.96 92.6146 125.888 92.6881 125.797 92.6881C125.719 92.6881 125.655 92.6328 125.638 92.5611L125.634 92.529C125.442 86.8897 120.841 82.3501 115.125 82.1614C115.039 82.1614 114.965 82.0899 114.965 82.0003C114.965 81.9116 115.038 81.8421 115.125 81.8384C120.841 81.6498 125.443 77.1103 125.634 71.4708C125.634 71.3859 125.706 71.3125 125.797 71.3125Z" fill="#0D6459" stroke="white" stroke-width="0.075"/>
</g>
<defs>
<clipPath id="clip0_7391_80411">
<rect width="118" height="30" fill="white" transform="translate(23 67)"/>
</clipPath>
</defs>
</svg>
