<svg width="164" height="164" viewBox="0 0 164 164" fill="none" xmlns="http://www.w3.org/2000/svg">
<g clip-path="url(#clip0_7391_80388)">
<path d="M41.7944 70.3132H27.422C28.0302 70.3132 28.5352 70.5068 28.9407 70.8974C29.3461 71.2639 29.5488 71.6891 29.5488 72.1697V76.3631H41.2927V80.2109H27.422C27.7381 80.2109 28.0199 80.2697 28.2672 80.3838C28.5387 80.4771 28.762 80.6119 28.9407 80.7952C29.1434 80.9784 29.2877 81.1858 29.3805 81.414C29.4939 81.6214 29.5488 81.8392 29.5488 82.0674V87.3256H41.7978V91.1388H25.1268V68.3565C25.1268 68.0592 25.0375 67.7722 24.8554 67.4956C24.6767 67.1983 24.4156 66.9563 24.0789 66.7731C23.7662 66.5933 23.4054 66.5 23 66.5H41.7944V70.3132Z" fill="#18444F"/>
<path d="M58.5623 86.3299C58.5623 88.3904 58.5829 89.9461 58.6242 90.997H54.5491V89.0092C53.673 90.5856 52.0306 91.3739 49.6255 91.3739C47.5159 91.3739 45.8323 90.5856 44.5782 89.0092C43.3241 87.4328 42.6987 85.3412 42.6987 82.7311C42.6987 80.1209 43.379 77.9568 44.7362 76.2974C46.0934 74.6138 47.935 73.7737 50.2543 73.7737C51.4259 73.7737 52.3639 73.9535 53.0751 74.3096C53.807 74.6656 54.2983 75.0874 54.5491 75.5714V69.9259C54.5491 69.6321 54.4254 69.3693 54.1746 69.1377C53.9239 68.9061 53.6112 68.792 53.2332 68.792H58.5623V86.3299ZM50.725 88.0654C51.395 88.0654 51.9688 87.9617 52.4498 87.7508C52.9514 87.5399 53.3397 87.2668 53.6112 86.9314C53.8826 86.5961 54.1025 86.1743 54.2709 85.6696C54.4392 85.1649 54.5526 84.6705 54.6144 84.1865C54.6763 83.6818 54.7072 83.1148 54.7072 82.4822C54.7072 81.6213 54.6557 80.8953 54.5491 80.3042C54.4667 79.6957 54.2881 79.1357 54.0166 78.6309C53.7658 78.1054 53.3775 77.7148 52.8553 77.4624C52.333 77.21 51.6733 77.0856 50.8796 77.0856C50.0241 77.0856 49.2922 77.3068 48.6841 77.7494C48.0794 78.1919 47.6189 78.8211 47.3063 79.6404C47.0142 80.4597 46.8665 81.4485 46.8665 82.6066C46.8665 84.3732 47.1997 85.7283 47.8697 86.6756C48.5604 87.6021 49.5121 88.0619 50.7215 88.0619L50.725 88.0654Z" fill="#18444F"/>
<path d="M75.3149 82.0088C75.3149 82.638 75.2943 83.1116 75.253 83.4297H63.9661C63.9661 84.7745 64.2891 85.9015 64.9385 86.8038C65.6084 87.7096 66.5361 88.159 67.7284 88.159C68.7111 88.159 69.4326 87.9792 69.893 87.6232C70.3535 87.2671 70.728 86.7519 71.02 86.0778H75.064C74.8957 86.6863 74.6449 87.2671 74.3116 87.8133C73.999 88.3595 73.5591 88.9265 72.9957 89.5177C72.4528 90.0846 71.7106 90.5375 70.7692 90.8729C69.8484 91.2082 68.7936 91.3776 67.6013 91.3776C66.3059 91.3776 65.1446 91.1459 64.1207 90.6827C63.1175 90.1987 62.3135 89.5488 61.7053 88.726C61.0971 87.9032 60.6402 87.0009 60.3275 86.0122C60.0354 85.0026 59.8877 83.9309 59.8877 82.7936C59.8877 80.1005 60.568 77.9259 61.9252 76.2631C63.2824 74.6002 65.2374 73.7705 67.7868 73.7705C69.1234 73.7705 70.2951 74.0125 71.2983 74.4965C72.3222 74.9598 73.1056 75.5993 73.6485 76.4221C74.2119 77.2207 74.6311 78.0954 74.9026 79.0391C75.174 79.9657 75.3114 80.9544 75.3114 82.0054L75.3149 82.0088ZM64.0588 80.8403H71.2364C71.2159 79.62 70.9238 78.6416 70.3569 77.9052C69.7934 77.1481 68.9241 76.7713 67.7559 76.7713C65.5397 76.7713 64.3062 78.1265 64.0554 80.8403H64.0588Z" fill="#18444F"/>
<path d="M76.5625 68.7915H81.8916V90.9966H77.8475V69.9255C77.8475 69.7353 77.796 69.559 77.6895 69.3896C77.583 69.2202 77.4284 69.0854 77.2188 68.9782C77.0298 68.8538 76.8099 68.7881 76.5591 68.7881L76.5625 68.7915Z" fill="#18444F"/>
<path d="M97.5517 86.866C97.5517 88.9472 97.624 90.3266 97.7717 90.9973H93.9168C93.7929 90.6205 93.7075 90.0085 93.666 89.1685C92.7866 90.6412 91.1785 91.3776 88.8386 91.3776C88.0654 91.3776 87.3544 91.2843 86.7081 91.0941C86.0588 90.8832 85.5163 90.6205 85.0763 90.3058C84.657 89.9705 84.293 89.5799 83.9799 89.1374C83.6881 88.6741 83.4682 88.2005 83.3205 87.7165C83.1966 87.2118 83.1313 86.6863 83.1313 86.14C83.1313 84.2905 83.8222 82.9007 85.1996 81.9777C86.5777 81.0512 88.5327 80.5914 91.0617 80.5914H93.6007V79.4229C93.6007 78.645 93.3908 78.002 92.9752 77.4973C92.5767 76.9925 91.8141 76.7402 90.6869 76.7402C89.6629 76.7402 88.9519 76.9407 88.557 77.3383C88.1787 77.7151 87.9213 78.2751 87.7737 79.0115H83.9182C83.9799 78.2959 84.1382 77.6459 84.389 77.0548C84.6606 76.4463 85.0591 75.8863 85.5815 75.3816C86.1033 74.8768 86.8042 74.4861 87.6806 74.213C88.5807 73.9192 89.6356 73.7705 90.8488 73.7705C95.3221 73.7913 97.5588 75.6961 97.5588 79.4782V86.8591L97.5517 86.866ZM93.6316 83.6163V83.1428H91.4702C89.986 83.1428 88.9003 83.3744 88.2095 83.8376C87.5394 84.2801 87.2062 84.9612 87.2062 85.8877C87.2062 86.6241 87.4369 87.2325 87.897 87.7165C88.3577 88.1797 89.0272 88.4114 89.9036 88.4114C90.6976 88.4114 91.3469 88.2869 91.8485 88.0346C92.3703 87.7822 92.7486 87.4158 92.9787 86.9317C93.2295 86.4477 93.3979 85.9534 93.4804 85.4486C93.5835 84.9439 93.6387 84.3354 93.6387 83.6198L93.6316 83.6163Z" fill="#18444F"/>
<path d="M109.447 73.7773C111.371 73.7773 112.958 74.5448 114.213 76.0798C115.467 77.594 116.095 79.6233 116.095 82.1678C116.095 85.0476 115.404 87.3085 114.027 88.9506C112.649 90.5686 110.914 91.381 108.821 91.381C106.729 91.381 105.227 90.6861 104.368 89.2998V97.5H100.356V78.2578C100.356 77.1446 100.345 76.1559 100.324 75.2916C100.324 74.9977 100.197 74.7454 99.9464 74.5345C99.6956 74.3029 99.3932 74.1887 99.0356 74.1887H104.365V76.4601C105.369 74.6728 107.062 73.7773 109.443 73.7773H109.447ZM107.973 88.0967C108.849 88.0967 109.591 87.8755 110.199 87.433C110.804 86.9697 111.254 86.3094 111.546 85.4451C111.838 84.5843 111.986 83.5437 111.986 82.3233C111.986 80.6847 111.653 79.3986 110.983 78.4756C110.333 77.5491 109.405 77.0893 108.193 77.0893C106.77 77.0893 105.746 77.5422 105.121 78.4445C104.516 79.3502 104.21 80.7262 104.21 82.5757C104.21 84.4252 104.492 85.7839 105.055 86.707C105.639 87.6334 106.612 88.0933 107.973 88.0933V88.0967Z" fill="#18444F"/>
<path d="M128.548 70.0986C128.609 70.0986 128.663 70.1449 128.678 70.2046L128.682 70.2314C128.838 74.938 132.607 78.7269 137.289 78.8843H137.289C137.363 78.8843 137.42 78.9436 137.42 79.0188C137.42 79.0929 137.36 79.1504 137.288 79.1533C132.607 79.3109 128.838 83.1001 128.682 87.8068C128.682 87.8777 128.623 87.939 128.548 87.939C128.483 87.939 128.432 87.8929 128.417 87.8331L128.414 87.8062C128.257 83.0996 124.488 79.3108 119.807 79.1533H119.806C119.736 79.1533 119.675 79.0936 119.675 79.0188C119.675 78.9448 119.735 78.8868 119.807 78.8837C124.488 78.7263 128.257 74.9376 128.414 70.2308C128.414 70.1599 128.473 70.0986 128.548 70.0986Z" fill="#0D6459" stroke="white" stroke-width="0.075"/>
</g>
<defs>
<clipPath id="clip0_7391_80388">
<rect width="118" height="31" fill="white" transform="translate(23 66.5)"/>
</clipPath>
</defs>
</svg>
