<svg width="164" height="164" viewBox="0 0 164 164" fill="none" xmlns="http://www.w3.org/2000/svg">
<g clip-path="url(#clip0_7391_80403)">
<path d="M46.5862 71.2534H28.5484C29.3096 71.2534 29.9445 71.4949 30.4532 71.9814C30.9619 72.4391 31.2144 72.9652 31.2144 73.5671V78.789H45.9513V83.5856H28.5484C28.9453 83.5856 29.2952 83.6577 29.6054 83.7982C29.9445 83.9136 30.2259 84.0829 30.4532 84.3136C30.7058 84.5406 30.8897 84.8001 31.0052 85.0848C31.1458 85.3407 31.218 85.6145 31.218 85.8993V92.451H46.5898V97.2044H25.666V68.8136C25.666 68.4424 25.5541 68.0857 25.3269 67.7433C25.0996 67.3721 24.7749 67.073 24.3528 66.8424C23.9596 66.6153 23.5087 66.5 23 66.5H46.5862V71.2534Z" fill="#18444F"/>
<path d="M68.7615 91.2043C68.7615 93.7702 68.7867 95.7091 68.8409 97.0209H63.7253V94.545C62.6251 96.5091 60.5651 97.493 57.5492 97.493C54.9012 97.493 52.7909 96.5091 51.2143 94.545C49.6415 92.581 48.855 89.9719 48.855 86.7248C48.855 83.4778 49.7064 80.7785 51.4128 78.7063C53.1191 76.6089 55.4243 75.5639 58.3356 75.5639C59.8039 75.5639 60.9836 75.7873 61.8747 76.2305C62.791 76.6774 63.4078 77.1999 63.7217 77.8018V70.7708C63.7217 70.4032 63.563 70.0752 63.2491 69.7869C62.9353 69.4986 62.542 69.3545 62.0695 69.3545H68.7579V91.2043H68.7615ZM58.9273 93.3666C59.7678 93.3666 60.4893 93.2369 61.0918 92.9738C61.7232 92.7107 62.2065 92.3719 62.5492 91.9503C62.8884 91.5323 63.1662 91.0062 63.3754 90.3791C63.5846 89.752 63.729 89.1357 63.8083 88.5303C63.8877 87.9033 63.9273 87.1933 63.9273 86.4077C63.9273 85.3337 63.8624 84.4292 63.729 83.6976C63.6243 82.9372 63.4007 82.2453 63.0615 81.6146C62.7477 80.9588 62.2607 80.4758 61.6077 80.1623C60.9512 79.8487 60.125 79.6902 59.1293 79.6902C58.0543 79.6902 57.1343 79.9641 56.3767 80.5155C55.6156 81.0668 55.0383 81.8524 54.6451 82.8723C54.2772 83.8958 54.0931 85.1247 54.0931 86.5662C54.0931 88.7682 54.5116 90.4583 55.3522 91.6368C56.218 92.79 57.4121 93.3666 58.9309 93.3666H58.9273Z" fill="#18444F"/>
<path d="M90.5623 85.8195C90.5623 86.6051 90.537 87.1961 90.4829 87.5889H76.3196C76.3196 89.2647 76.7273 90.6666 77.539 91.7946C78.3795 92.9226 79.5448 93.4848 81.0419 93.4848C82.2757 93.4848 83.1776 93.2613 83.7548 92.818C84.332 92.3712 84.8046 91.7297 85.169 90.8936H90.2448C90.0356 91.6541 89.7217 92.3748 89.2996 93.0559C88.9064 93.7371 88.3544 94.4434 87.6473 95.1785C86.9655 95.8849 86.0348 96.4507 84.8551 96.8687C83.7007 97.2868 82.3767 97.4958 80.8832 97.4958C79.2562 97.4958 77.8024 97.2075 76.5181 96.6309C75.259 96.0291 74.2489 95.2146 73.4877 94.1947C72.7265 93.1712 72.1493 92.0469 71.7561 90.8143C71.3881 89.5566 71.2041 88.2196 71.2041 86.8069C71.2041 83.4518 72.0555 80.7417 73.7619 78.6732C75.4683 76.6046 77.9178 75.5703 81.1177 75.5703C82.7952 75.5703 84.2635 75.873 85.5225 76.4748C86.8068 77.0514 87.7917 77.8515 88.4735 78.8714C89.1806 79.866 89.7072 80.9543 90.0464 82.1328C90.3891 83.286 90.5587 84.5185 90.5587 85.8267L90.5623 85.8195ZM76.4423 84.3672H85.4504C85.4251 82.8464 85.0572 81.6283 84.35 80.7129C83.643 79.7687 82.5535 79.2966 81.0852 79.2966C78.3038 79.2966 76.7598 80.9868 76.4423 84.3672Z" fill="#18444F"/>
<path d="M102.16 83.9743C103.813 84.3672 105.177 84.814 106.252 85.3113C107.326 85.7835 108.127 86.3348 108.65 86.9619C109.203 87.5637 109.567 88.1655 109.751 88.771C109.935 89.3765 110.025 90.108 110.025 90.973C110.025 92.8577 109.279 94.4182 107.784 95.6506C106.317 96.8832 104.152 97.4994 101.294 97.4994C98.4373 97.4994 96.2586 96.8976 94.7651 95.6903C93.2715 94.4578 92.3913 92.8361 92.1279 90.818H97.1246C97.6475 92.782 99.1048 93.7658 101.49 93.7658C103.744 93.7658 104.873 92.955 104.873 91.3297C104.873 90.5693 104.57 89.9818 103.968 89.5602C103.39 89.1422 102.276 88.7206 100.624 88.3025C99.0258 87.9097 97.7013 87.4917 96.6518 87.0448C95.602 86.5979 94.8048 86.1006 94.2528 85.5528C93.7297 84.9762 93.3761 84.3996 93.1921 83.823C93.0082 83.2464 92.918 82.5652 92.918 81.7796C92.918 80.994 93.0623 80.2084 93.3509 79.502C93.6395 78.7957 94.0976 78.1398 94.729 77.5379C95.3567 76.9362 96.2117 76.464 97.2868 76.1217C98.3872 75.7541 99.6608 75.5703 101.103 75.5703C102.547 75.5703 103.817 75.7685 104.921 76.1613C106.02 76.5289 106.886 77.0262 107.517 77.6533C108.149 78.2551 108.618 78.911 108.936 79.6174C109.275 80.2985 109.473 81.0192 109.527 81.7796H104.689C104.296 80.0751 103.023 79.2245 100.873 79.2245C100.165 79.2245 99.5738 79.3291 99.1011 79.5381C98.6541 79.7471 98.34 80.0102 98.1563 80.3237C97.9978 80.612 97.9218 80.9507 97.9218 81.3472C97.9218 81.9742 98.1962 82.4752 98.7478 82.8391C99.3253 83.2067 100.465 83.5851 102.171 83.978L102.16 83.9743Z" fill="#18444F"/>
<path d="M125.512 70.9561C125.589 70.9561 125.656 71.0133 125.675 71.0872L125.679 71.1204C125.874 76.9477 130.561 81.6386 136.384 81.8336H136.384C136.476 81.8336 136.547 81.907 136.547 82.0001C136.547 82.0918 136.473 82.163 136.383 82.1666C130.56 82.3618 125.874 87.0532 125.679 92.8805C125.679 92.9683 125.605 93.0441 125.512 93.0441C125.432 93.0441 125.368 92.9871 125.35 92.913L125.346 92.8798C125.151 87.0525 120.463 82.3615 114.641 82.1666C114.553 82.1666 114.477 82.0927 114.477 82.0001C114.477 81.9085 114.552 81.8367 114.641 81.8328C120.463 81.6379 125.151 76.9472 125.346 71.1197C125.346 71.0319 125.419 70.9561 125.512 70.9561Z" fill="#0D6459" stroke="white" stroke-width="0.075"/>
</g>
<defs>
<clipPath id="clip0_7391_80403">
<rect width="118" height="31" fill="white" transform="translate(23 66.5)"/>
</clipPath>
</defs>
</svg>
